<?xml version="1.0" encoding="UTF-8"?>
<svg xmlns="http://www.w3.org/2000/svg" xmlns:xlink="http://www.w3.org/1999/xlink" viewBox="0 0 1920 1080">
  <defs>
    <style>
      .cls-1 {
        fill: none;
      }

      .cls-2 {
        fill: #276387;
      }

      .cls-3 {
        fill: url(#radial-gradient-2);
      }

      .cls-4 {
        isolation: isolate;
      }

      .cls-5 {
        fill: url(#radial-gradient);
        opacity: .39;
      }

      .cls-6 {
        mix-blend-mode: multiply;
      }

      .cls-7 {
        clip-path: url(#clippath-1);
      }

      .cls-8 {
        clip-path: url(#clippath-2);
      }

      .cls-9 {
        mix-blend-mode: darken;
      }

      .cls-10 {
        opacity: .6;
      }

      .cls-11 {
        opacity: .3;
      }
    </style>
    <clipPath id="clippath-1">
      <rect class="cls-1" x="-48.43" y="1116.53" width="1991.12" height="1140.64"/>
    </clipPath>
    <clipPath id="clippath-2">
      <rect class="cls-1" x="-52.77" y="-28.32" width="1991.12" height="1140.64"/>
    </clipPath>
    <radialGradient id="radial-gradient" cx="1445.15" cy="178.81" fx="1445.15" fy="178.81" r="656.84" gradientTransform="translate(-1501.71 382.64) scale(1.76 .82)" gradientUnits="userSpaceOnUse">
      <stop offset="0" stop-color="#59a5da" stop-opacity="0"/>
      <stop offset=".35" stop-color="#4979b9" stop-opacity=".38"/>
      <stop offset=".79" stop-color="#374792" stop-opacity=".83"/>
      <stop offset="1" stop-color="#303484"/>
    </radialGradient>
    <radialGradient id="radial-gradient-2" cx="1463.82" cy="64.98" fx="1463.82" fy="64.98" r="761.51" gradientTransform="translate(-1501.71 388.19) scale(1.76 .81)" gradientUnits="userSpaceOnUse">
      <stop offset="0" stop-color="#59a5da"/>
      <stop offset=".23" stop-color="#4e88c4"/>
      <stop offset=".75" stop-color="#384b96"/>
      <stop offset="1" stop-color="#303484"/>
    </radialGradient>
  </defs>
  <g class="cls-4">
    <g id="Longer_Band_Title_copy" data-name="Longer Band Title copy">
      <g id="Background_copy_7" data-name="Background copy 7">
        <g id="Layer_8_copy_7" data-name="Layer 8 copy 7" class="cls-10">
          <g id="Pattern_Background_copy_7" data-name="Pattern Background copy 7" class="cls-9">
            <g id="Gradient_Background_copy_9" data-name="Gradient Background copy 9">
              <g class="cls-7">
                <g class="cls-11">
                  <g>
                    <path class="cls-2" d="M-39.23,1230.92c66.59-16.31,140.77-61.23,210.02-38.07,45.4,15.19,70.31,65.91,100.46,99.55,51.9,57.9,119.41,80.66,161.83,155.33,14.83,26.11,22.32,80.22,62.84,63.75,25.66-10.43,47.42-88.28,51.02-114.25,6.66-48.08-.33-153.51,54.76-174.5,36.29-13.82,60.72,22.28,77.89,47.81,41.57,61.83,69.43,132.84,113.38,193.2,41.93,57.58,150.2,161.42,226.78,150.37,57.46-8.29,45-63.82,26.49-102.41-55.52-115.79-166.22-187.36-89.9-334.2,21.87-42.08,82.15-136.41,122.29-157.62,122.71-64.84,326.18,102.08,363.76,215.65,8.93,26.98,5.25,65.98-23.32,79.47-42.24,19.95-88.92-17.8-141.41,7.88-53.91,26.37-87.3,155.6-161.25,100-33.32-25.05-87.08-98.59-91.64-140.29-11.44-104.62,77.14-159.22,168.98-168.92,11.66-1.23,47.88,4.65,46.02-16.91-2.58-29.91-69.55-43.31-93.71-41.43-68.65,5.32-88.55,57.96-118.44,108.15-14.44,24.26-34.82,47.48-41.86,75.44-16.91,67.22,33.91,118.78,66.44,170.86,15.45,24.73,35.46,81.71,66.81,85.14,67.63,7.4,109.92-95.17,154.75-130.73,73.11-57.99,145.12,38.12,200.86,76.36,51.01,34.99,102.81,48.34,152.33,92.92,63.62,57.27,66.96,99.33,104.45,167.47,42.54,77.31,132.26,108.87,202.08,44.5v-551.83c-4.68,2.78-4.75,7.25-5.36,11.98-10.22,79.92-30.7,168.17-26.61,247.92,1.82,35.43,18.38,96.21,12.67,127.36-6.16,33.65-61.41,23.43-61.91,57.64-.27,18.36,14.48,34.98,31.1,41.07,8.63,3.16,34.66,4.02,36.74,8.59l-31.1,27.48c-83.6,34.58-91.51-26.95-122.44-79.22-41.77-70.57-106.57-106.86-169.83-152.74-33.97-24.64-66.58-55.78-37.59-100.58,29.04-44.88,90.15-14.92,130.72-11.22,54.99,5.02,139.7-10.07,167.28-64,39.2-76.64,23.42-174.53,76.32-244.92v-103.97c-21.68,39.71-48.65,81.69-63.39,124.55-27.03,78.61-14.51,174.46-100.89,216.34-72.68,35.24-170.89,9.66-234.88-33.71-142.54-96.59-193.32-325.11-409.13-287.74-65.55,11.35-92.07,43.7-139.48,81.79-134.5,108.07-231.66-17.09-367.71-26.7-41.38-2.92-105.11,3.37-138.67,29.5-28.56,22.23-44.3,63.03-72.48,82.14-48.75,33.07-70.77-35-94.31-64.76-21.23-26.85-47.57-46.1-79.41-59.22-44.11-18.18-97.11-13.38-128.41-55.53-74.06-99.71,68.93-218.05,100.55-307.31,13.77-38.86,14.11-79.05.75-117.88h-58.65c25.96,54.36,24.66,106.41-.77,160.51-42.74,90.96-137.99,136.71-129.81,251.31,2.08,29.07,27.95,92.34-22.77,89.53-11.77-.65-18.44-5.57-24.66-15.45l-8.6-32.72v127.96c106.67-6.26,195.83-83.33,298.39-11.81,34.33,23.94,102.5,106.98,114.92,146.32,6.71,21.27,4.61,39.32-18.84,48.02-28.73,10.66-42.56-17.81-54.18-38.96-30.55-55.62-37.87-115.02-115.05-122.21-74.83-6.97-150.97,28.16-225.24,34.63v53.32ZM868.45,1324.26c-49.42-54.51-70.35-122.22-133.32-167.92-145.39-105.53-283.44-27.76-235.7,155.73,4.14,15.91,25.81,63.89,13.93,76.28-24.58,25.65-45.49-24.76-52.69-42.85-88.51-222.29,111.73-371.94,306.45-223.81,77.73,59.13,126.09,146.54,150.68,239.84-5.92,6.13-44.11-31.5-49.34-37.27ZM925.76,1437.54c18.12,20.19,87.98,84.34,92.65,104.69,6.1,26.55-29.02,36.7-50.85,24.14-31.97-18.39-92.14-89.83-116.35-120.91-50.54-64.87-147.44-249.48-228.2-259.65-60.8-7.65-56.66,42.08-87.75,77.04-7.56-5.68-8.59-13.73-9.44-22.51-9.38-97.86,89.92-117.74,161.46-78.82,63.93,34.77,106.45,115.27,150.62,171.95,25.7,32.98,54.22,62.16,81.74,92.85,2.51,2.8,3,7.75,6.11,11.21Z"/>
                    <path class="cls-2" d="M795.18,540.47h122.63c1.21,5.72-2.99,5.85-6.58,7.94-99.23,57.75-207.18,24.71-307.41,55.28-77.01,23.49-118.43,96.55-112.5,175.32,2.19,29.11,14.2,41.62-8.12,69.27-56.27,69.69-175.99,27.07-251.73,25.3-21.46-.5-56.01,6.97-41.07,35.76,13.4,25.82,106.04,45.07,134.3,46.96,79.12,5.28,149.67-24.31,231.85-18.58,108.67,7.58,239.58,82.85,340.8,20.81,58.27-35.71,52.8-94.97,138.99-100.94,19.89-1.38,41.45,1.6,61.38.07,54.75-4.2,98.19-31.42,154.33-4.96,51.71,24.37,81.89,83.69,116.35,126.24,54.43,67.21,132.7,138.95,218.96,159.59,28.46,6.81,69.48,11.32,63.38-31.4-3.51-24.56-42.31-25.47-61.71-31.58-171.29-53.9-186.99-159.36-303.3-264.53-10.28-9.3-40.93-25.05-39.35-39.6,2.48-22.78,37.24-20.92,51.83-8.85,13.88,11.48,49.54,61.81,63.19,79.42,58.59,75.56,91.1,152.9,189.51,183.7,166.32,52.06,288.77-25.59,359.06-174.18l23.52-68.45v61.31c-13.78,22.51-21.32,48.66-33.21,72.09-36.79,72.5-82.76,134.89-116.56,211.34-20.4,46.16-34.13,115.82-97.05,124.22-99.54,13.29-210.72-102.26-271.72-170.35-87.94-98.16-121.91-204.32-282.22-188.99-114.47,10.95-139.79,88.72-229.1,125.45-123.13,50.65-188.81-39.22-301.75-45.78-51.68-3-104.73,11.14-148.73,37.82-33.75,20.46-62.6,65.37-104.49,34.13-25.32-18.89-44.91-41.72-73.52-59.77-31.21-19.69-83.9-34.54-107.88-54.74-22.38-18.85-20.68-65.81,4.93-80.62,27.06-15.65,89.03-2.52,123.28-4.68,140.37-8.85,116.62-99.26,175.99-186.57,80.2-117.94,184.08-83.6,299.81-108.06,7.12-1.5,18.51-4.39,23.92-9.41Z"/>
                    <path class="cls-2" d="M774.84,630.77c-32.11,4.1-66.52,3.73-97.93,8.7-151.2,23.92-170.62,218.44-20.92,270.77,41.5,14.51,140.09,20.44,181.25,6.86,61.58-20.32,45.95-61.51,81.86-86.09,35.41-24.24,123.25-7.99,169.95-16.66,88.73-16.46,158.75-108.35,124.3-197.57-10.9-28.23-32.53-50.66-47.64-76.32h-173.28c-54.29,61.57-139.13,80.28-217.61,90.3ZM903.9,634.53c83.4-21.81,135.94-100.94,228.36-75.25,68.83,19.13,84.62,108.99,41.53,161.2-38.12,46.19-89.54,61.54-147.89,62.71-55.59,1.12-109.25-18.7-150.67,30.61-15.82,18.84-22.81,44.34-39.95,61.35-61.31,60.86-226.56,3.78-239.41-83.4-21.78-147.77,218.43-133.8,308.02-157.22Z"/>
                    <path class="cls-2" d="M1386.99,540.47h103.97c2.58,19.54-11.08,38.09-15.33,55.31-31.58,127.98,44.18,258.82,184.72,248.7,90.11-6.49,135.85-90.74,195.8-140.09,24.52-20.19,45.12-25.53,77.34-22.63v61.31c-49.18-47.84-71.67,18.24-96.46,51.49-67.88,91.04-144.41,133.22-258.75,91.79-101.01-36.6-146.54-128.71-167.91-226.63-8.64-39.62-16.24-79.36-23.37-119.25Z"/>
                    <path class="cls-2" d="M270.01,540.47h218.6c-25.52,26.85-51.81,53.01-70.43,85.52-29.61,51.7-42.6,117.62-95.01,152.92-29.05,19.57-72.66,28.67-103.51,7.85-40.15-27.11-.69-52.03,15.69-74.33,37.36-50.87,66.72-110.04,34.65-171.95Z"/>
                    <path class="cls-2" d="M1235.04,540.47h85.31c27.18,121.61,55.07,248.68,150.55,335.97,78.79,72.04,175.1,100.12,276.49,55.08,47.55-21.12,83.97-56.24,124.77-87.14,3.56,4-33.45,50.38-38.59,56.02-104.84,114.99-270.39,112.65-375.95,0-20.61-21.99-34.71-49.24-51.98-73.31-64.62-90.04-136.44-179.69-170.58-286.61Z"/>
                    <path class="cls-2" d="M1549.61,540.47h47.98c-24.47,49.61-52.25,82.88-45.02,142.33,8.22,67.58,93.96,90.27,146.09,50.72,42.38-32.15,67.81-83.95,119.33-117.93,33.11-21.84,76.13-38.19,115.5-43.12v53.32c-50.7-3.25-91.76,12.47-129.36,45.25-39.24,34.21-65.43,85.46-114.94,106.32-99.57,41.96-195.14-35.35-173.56-141.57,6.7-32.95,28.7-62.06,33.98-95.31Z"/>
                    <path class="cls-2" d="M-39.23,804.39c50.46-55.85,113.34-117.59,81.27-199.9-9.28-23.82-28.89-40.98-38.62-64.02h74.64c7.17,17.77,17.48,35.95,21.07,54.9,19.65,103.66-73.8,170.28-116.56,250.81-9.13,17.19-14.25,36.37-21.81,54.17v-95.97Z"/>
                    <path class="cls-2" d="M-39.23,580.46c57.12,32.43,49.83,100.38,0,135.96v-135.96Z"/>
                    <path class="cls-2" d="M1127.7,615.83c10.57,10.53,13.02,31.44,11.15,45.72-4.87,37.03-60.27,65.4-94.31,68.3-68.12,5.8-158.31-17.2-213.79,35.47-33.52,31.82-25.57,88.21-95.32,78.83-57.26-7.7-100.3-89.2-33.5-118.35,92.46-40.35,205.46-23.25,299.16-71.39,15.53-7.98,30.36-20.89,45.56-29.09,19.59-10.57,62.93-27.55,81.05-9.49Z"/>
                  </g>
                </g>
              </g>
            </g>
          </g>
        </g>
      </g>
    </g>
    <g id="Welcome_Screen" data-name="Welcome Screen">
      <g id="Background_copy" data-name="Background copy">
        <g id="Layer_8_copy" data-name="Layer 8 copy" class="cls-10">
          <g id="Pattern_Background_copy" data-name="Pattern Background copy" class="cls-9">
            <g id="Gradient_Background_copy_3" data-name="Gradient Background copy 3">
              <g class="cls-8">
                <g class="cls-11">
                  <g>
                    <path class="cls-2" d="M-43.56,86.06C23.03,69.75,97.21,24.83,166.45,47.99c45.4,15.19,70.31,65.91,100.46,99.55,51.9,57.9,119.41,80.66,161.83,155.33,14.83,26.11,22.32,80.22,62.84,63.75,25.66-10.43,47.42-88.28,51.02-114.25,6.66-48.08-.33-153.51,54.76-174.5,36.29-13.82,60.72,22.28,77.89,47.81,41.57,61.83,69.43,132.84,113.38,193.2,41.93,57.58,150.2,161.42,226.78,150.37,57.46-8.29,45-63.82,26.49-102.41-55.52-115.79-166.22-187.36-89.9-334.2,21.87-42.08,82.15-136.41,122.29-157.62,122.71-64.84,326.18,102.08,363.76,215.65,8.93,26.98,5.25,65.98-23.32,79.47-42.24,19.95-88.92-17.8-141.41,7.88-53.91,26.37-87.3,155.6-161.25,100-33.32-25.05-87.08-98.59-91.64-140.29-11.44-104.62,77.14-159.22,168.98-168.92,11.66-1.23,47.88,4.65,46.02-16.91-2.58-29.91-69.55-43.31-93.71-41.43-68.65,5.32-88.55,57.96-118.44,108.15-14.44,24.26-34.82,47.48-41.86,75.44-16.91,67.22,33.91,118.78,66.44,170.86,15.45,24.73,35.46,81.71,66.81,85.14,67.63,7.4,109.92-95.17,154.75-130.73,73.11-57.99,145.12,38.12,200.86,76.36,51.01,34.99,102.81,48.34,152.33,92.92,63.62,57.27,66.96,99.33,104.45,167.47,42.54,77.31,132.26,108.87,202.08,44.5V48.74c-4.68,2.78-4.75,7.25-5.36,11.98-10.22,79.92-30.7,168.17-26.61,247.92,1.82,35.43,18.38,96.21,12.67,127.36-6.16,33.65-61.41,23.43-61.91,57.64-.27,18.36,14.48,34.98,31.1,41.07,8.63,3.16,34.66,4.02,36.74,8.59l-31.1,27.48c-83.6,34.58-91.51-26.95-122.44-79.22-41.77-70.57-106.57-106.86-169.83-152.74-33.97-24.64-66.58-55.78-37.59-100.58,29.04-44.88,90.15-14.92,130.72-11.22,54.99,5.02,139.7-10.07,167.28-64,39.2-76.64,23.42-174.53,76.32-244.92v-103.97c-21.68,39.71-48.65,81.69-63.39,124.55-27.03,78.61-14.51,174.46-100.89,216.34-72.68,35.24-170.89,9.66-234.88-33.71-142.54-96.59-193.32-325.11-409.13-287.74-65.55,11.35-92.07,43.7-139.48,81.79-134.5,108.07-231.66-17.09-367.71-26.7-41.38-2.92-105.11,3.37-138.67,29.5-28.56,22.23-44.3,63.03-72.48,82.14-48.75,33.07-70.77-35-94.31-64.76-21.23-26.85-47.57-46.1-79.41-59.22-44.11-18.18-97.11-13.38-128.41-55.53-74.06-99.71,68.93-218.05,100.55-307.31,13.77-38.86,14.11-79.05.75-117.88h-58.65c25.96,54.36,24.66,106.41-.77,160.51C99.53-352.92,4.28-307.16,12.46-192.56c2.08,29.07,27.95,92.34-22.77,89.53-11.77-.65-18.44-5.57-24.66-15.45l-8.6-32.72V-23.24c106.67-6.26,195.83-83.33,298.39-11.81,34.33,23.94,102.5,106.98,114.92,146.32,6.71,21.27,4.61,39.32-18.84,48.02-28.73,10.66-42.56-17.81-54.18-38.96C266.18,64.7,258.86,5.3,181.68-1.89S30.7,26.27-43.56,32.75v53.32ZM864.11,179.41c-49.42-54.51-70.35-122.22-133.32-167.92-145.39-105.53-283.44-27.76-235.7,155.73,4.14,15.91,25.81,63.89,13.93,76.28-24.58,25.65-45.49-24.76-52.69-42.85C367.82-21.65,568.06-171.29,762.78-23.16c77.73,59.13,126.09,146.54,150.68,239.84-5.92,6.13-44.11-31.5-49.34-37.27ZM921.43,292.69c18.12,20.19,87.98,84.34,92.65,104.69,6.1,26.55-29.02,36.7-50.85,24.14-31.97-18.39-92.14-89.83-116.35-120.91-50.54-64.87-147.44-249.48-228.2-259.65-60.8-7.65-56.66,42.08-87.75,77.04-7.56-5.68-8.59-13.73-9.44-22.51-9.38-97.86,89.92-117.74,161.46-78.82,63.93,34.77,106.45,115.27,150.62,171.95,25.7,32.98,54.22,62.16,81.74,92.85,2.51,2.8,3,7.75,6.11,11.21Z"/>
                    <path class="cls-2" d="M-43.56,760.52c56.08,28.88,116.01,51.88,179.83,56.09,81.86,5.41,163.95-36.45,234.62,23.96,48.76,41.68,62.64,113.31,82.16,171.1,2.91,8.6,13.62,41.63,17.72,46.26,11.32,12.76,22.87,1.49,24.34-13.32,7.18-72.25-52.72-189.44-92.89-248.69-46.12-68.03-112.81-122.43-101.21-214.66,7.73-61.47,65.38-102.53,57.68-168.34-6.2-52.96-79.64-107.14-127.12-123.47-62.98-21.66-145.11-29.44-152.17,56.88-1.57,19.18,2.95,35.09,2.44,53.09-2.28,79.45-92.48,116.35-47.58,201.98,38.54,73.53,127.99,52,195.27,65.98,40.17,8.35,56.38,53.61,28.13,83.79-34.37,36.72-139.83,21.43-184.49,8.58-43.03-12.38-80.25-35.6-116.73-60.55v-82.64c15.57,53.96,53.83,91.99,105.9,111.36,27.67,10.29,124.25,27.44,148.89,16.8,24.13-10.42,31.71-42.98-.84-50.22-75.39-16.77-162.16,15.17-203.77-78.81-39.7-89.64,30.66-134.92,35.11-211.15,2.84-48.57-44.46-107.13,20.71-141.85,16.37-8.72,70-16.06,74.71-31.9,9.19-30.92-34.6-48.19-59.09-45.84-42.16,4.04-85.24,51.36-95.81,90.85-10.97,41,1.21,70.89,3.49,110.17,2.74,47.17-9.37,87.07-29.3,129.27V251.35c32.17-55.24,91.71-95.16,157.94-81.96,40.09,7.99,61.72,37.73,91.37,60.58,50.13,38.62,142.46,88.75,168.84,145.73,43.45,93.86-42.5,158.43-39.59,247.47,1.23,37.53,20.54,93.88,60.53,104.82,3.23.89,7.65,2.14,6.04-3.37-9.35-32.05-24.1-50.76-26.7-87.95-6.26-89.33,46.35-136.09,40.21-216.16-6.49-84.64-124.17-156.69-184.09-207.78-32.89-28.05-58.86-65.43-103.33-75.28-65.63-14.53-119.12,5.49-171.21,44.58v-39.99c93.2-33.89,173-76.05,251.99,10.59,4.21,4.62,5.57,10.76,9.25,14.74,92.34,99.67,223.08,146.23,215.91,306.54-2.19,48.85-24.85,89.27-29.32,130.63-4.1,38.01,15.9,71.88,55.31,78.02,37.73,5.88,89.08-.82,129.94,3.35,76.46,7.81,217.57,50.42,258.46,120.09,50.72,86.42,20.26,196.75-20.2,280.69-20.88,43.31-70.99,108.72-83.47,148.46-15.29,48.7,35.08,75.03,63.68,37.02,20.7-27.51,51.9-93.6,67.77-126.83,58.41-122.37,70.6-213.36,53.65-348.8-8.01-64.03-36.09-106.53-93.21-136.05-23.19-11.99-47.69-17.27-69.2-32.11-57.17-39.44-72.56-114.96-150.69-121.22-11.17-.89-28.62-.75-39.76.42-29.92,3.17-78.96,31-86.32-15.63-13.21-83.68,86.42-95.36,143.42-68.78,81.76,38.13,72.3,111.86,129.46,166.45,53.83,51.41,94,41.34,159.64,50.96,94.36,13.82,35.94,90.6,31.03,148.27-8.46,99.35,45.99,121.29,76.35,194.88,11.39,27.61,10.68,44.51-8.68,67.39-31.57,37.32-72.95,54.59-103.78,101.49-34.98,53.22-38.03,104.36-62.42,156.18-45.85,97.42-153.21,39.19-160.36-45.82-5.7-67.71,60.29-188.51,78.64-259.83,23.9-92.87,8.7-190.55-70.87-251.79-114.75-88.31-291.79-8.67-226.45,143.81,28.24,65.9,83.12,121.31,46.82,201.37-16.58,36.57-102.04,117.92-137.73,136.86-12.78,6.78-22,11.08-33.12-.92-17.4-18.78,3.96-29.15,13.54-39.99,61.42-69.55,97.51-154.82,53.16-245.32-69.89-142.6-232.93-99.89-362.17-117.67-35.13-4.84-66.48-13.73-100.3-23.66v-45.32Z"/>
                    <path class="cls-2" d="M1691.97,617.82c-39.29-46.68-41.78-89.39-62.77-142.5-34.47-87.22-121.93-101.12-191.43-149.8-64.21-44.97-105.4-121.66-185.67-32.78-61.87,68.5-115.53,173.43-211.25,199.29-148.96,40.24-277.95-98.18-343.77-214.9-17.97-31.86-34.72-76.7-54.31-105.64-12.96-19.16-32.02-30.51-41.64-1.88-10.74,31.95-10.59,87.68-19.01,124.94-3.3,14.58-20.29,47.63-9.96,58.78,8.29,8.94,66.71,14.42,85.85,21.53,112.2,41.65,88.28,159.95,162.93,202.28,47.45,26.91,114.03,12.15,165.54,18.4,27.68,3.36,50.05,25.56,49.71,54.22-.47,39.65-25.89,90.21-29.37,130.8-7.29,84.96,27.29,135.66,87.89,189.27,38.77,34.29,86.03,67.47,124.89,10.19,26.89-39.64-22.74-73.67-43.32-102.43-24.55-34.31-42.85-111.08-44.18-153.07-4.34-137.35,105.81-433.58,288.73-323.41,130.98,78.89,97.82,278.4,230.23,369.59,68.23,46.99,171.29,34.03,200.02,127.88,37.1,121.18-106.52,165.36-150.43,255.93-39.98,82.47-1.97,151.4,52.55,213.83h69.31c-33-23.64-63.93-46.83-82.17-84.45-59.25-122.22,62.14-171.68,134.27-240.66l54.53-58.77v-186.61c-79.2,15.08-146.49-.46-212.54-44.71-111.73-74.85-118.76-146-177.95-253.92-44.81-81.7-124.16-166.6-226.61-157.18-93.32,8.57-120.97,167.49-203.49,172.67-8.13.51-14.34-3.3-21.85-6.13.13-9.65,31.9-29.71,40.05-37.26,95.86-88.66,120.31-220.1,277.83-147.28,72.88,33.69,138.72,100.2,182.82,166.4,42.93,64.42,72.94,151.38,134.01,199.22,56.57,44.33,138.59,71.07,207.71,41.54v-61.31c-85.27,37.42-177.02,19.42-237.18-52.06ZM852.69,548.05c-22.96-6.94-60.9-37.27-59.06-63.13.52-7.34,7.91-20.33,15.13-22.47,14.03-4.17,45.7,17.68,60.27,23.95,56.1,24.11,104.45,28.04,162.28,40.32,66.92,14.21,106.35,52.16,88.78,124.53-14.83,61.1-40.02,90.31-27.63,160.88,11.21,63.84,42.72,82.64,76.91,128.35,13.53,18.08,4.88,30.5-17.06,27.92-17.35-2.04-53.47-37.83-65.64-51.85-48.56-55.94-59.64-116.09-40.77-187.53,10.56-39.96,56.31-104.72,18.6-140.85-42.13-40.36-155.25-23.01-211.82-40.11Z"/>
                    <path class="cls-2" d="M790.84-604.39h122.63c1.21,5.72-2.99,5.85-6.58,7.94-99.23,57.75-207.18,24.71-307.41,55.28-77.01,23.49-118.43,96.55-112.5,175.32,2.19,29.11,14.2,41.62-8.12,69.27-56.27,69.69-175.99,27.07-251.73,25.3-21.46-.5-56.01,6.97-41.07,35.76,13.4,25.82,106.04,45.07,134.3,46.96,79.12,5.28,149.67-24.31,231.85-18.58,108.67,7.58,239.58,82.85,340.8,20.81,58.27-35.71,52.8-94.97,138.99-100.94,19.89-1.38,41.45,1.6,61.38.07,54.75-4.2,98.19-31.42,154.33-4.96,51.71,24.37,81.89,83.69,116.35,126.24,54.43,67.21,132.7,138.95,218.96,159.59,28.46,6.81,69.48,11.32,63.38-31.4-3.51-24.56-42.31-25.47-61.71-31.58-171.29-53.9-186.99-159.36-303.3-264.53-10.28-9.3-40.93-25.05-39.35-39.6,2.48-22.78,37.24-20.92,51.83-8.85,13.88,11.48,49.54,61.81,63.19,79.42,58.59,75.56,91.1,152.9,189.51,183.7,166.32,52.06,288.77-25.59,359.06-174.18l23.52-68.45v61.31c-13.78,22.51-21.32,48.66-33.21,72.09-36.79,72.5-82.76,134.89-116.56,211.34-20.4,46.16-34.13,115.82-97.05,124.22-99.54,13.29-210.72-102.26-271.72-170.35-87.94-98.16-121.91-204.32-282.22-188.99-114.47,10.95-139.79,88.72-229.1,125.45-123.13,50.65-188.81-39.22-301.75-45.78-51.68-3-104.73,11.14-148.73,37.82-33.75,20.46-62.6,65.37-104.49,34.13-25.32-18.89-44.91-41.72-73.52-59.77-31.21-19.69-83.9-34.54-107.88-54.74-22.38-18.85-20.68-65.81,4.93-80.62,27.06-15.65,89.03-2.52,123.28-4.68,140.37-8.85,116.62-99.26,175.99-186.57,80.2-117.94,184.08-83.6,299.81-108.06,7.12-1.5,18.51-4.39,23.92-9.41Z"/>
                    <path class="cls-2" d="M1030.77,1368.33c40.12-84.7,124.12-115.92,210.05-135.17,98.36-22.04,260.02-39.44,340.51,33.8,28.4,25.85,49.01,64.97,59.91,101.37h39.99c-58.14-82.71-84.97-165.71-31.47-259.4,29.35-51.39,67.45-72.59,102.15-113.79,78.31-92.97-27.95-115.28-89.38-147.94-70.31-37.38-131-93.39-163.03-167.53-31.04-71.84-33.59-215.43-122.91-242.3-28.43-8.55-48.23,11.13-23.36,31.35,26.02,21.15,58.85,42.52,63.86,80.1,7.18,53.87-37.94,90.02-18.27,159.56,36.69,129.78,177.56,248.18,91.03,397.92-65.04,112.56-184.24,67.52-288.49,92.72-94.1,22.74-179.72,78.02-218.57,169.31h47.98ZM1595.45,1121.27c-11.38,17.66-29.49,44.93-48.94,17.89-15.65-21.75,3.28-44.4,9.29-65.54,22.21-78.15.67-147.79-36.73-216.25-25.96-47.52-87.54-115.99-91.05-167.52-.73-10.74-1.97-37.55,14.42-36.03,15.08,1.39,37.66,48.33,47.33,62.23,13.66,19.63,30.22,37.46,43.92,56.01,88.23,119.44,158.4,199.23,61.76,349.22Z"/>
                    <path class="cls-2" d="M900.14,1368.33c19.11-130.15,96.37-236.51,219.45-285.72,65.85-26.33,149.34-28.38,193.69-91.55,55.34-78.84-1.2-163.95-10.56-245.23-6.44-55.95,9.11-107.93,5.39-157.37-1.44-19.1-6.98-32.36-28.16-33.32-15.17-.69-22.36,7.76-26.68,21.35-18.3,57.55-8,149.31,2.21,208.58,4.43,25.71,32.79,92.58-21.4,74.7-13.52-4.46-22.05-20.96-24.55-34.09-5.03-26.35-7.17-70.75-8.26-98.37-2.27-57.5-1.81-277.85,108.56-220.52,20.28,10.54,35.93,32.59,37.92,55.44,2.13,24.5-16.21,56.78-20.4,83.01-8.19,51.24,3.53,96.21,23.7,142.9,36.32,84.11,137.51,173.96,76.46,269.15-42.05,65.57-130.51,51.2-197.28,63.97-128.15,24.52-263.97,118.83-303.42,247.07h-26.66Z"/>
                    <path class="cls-2" d="M665.55,1368.33h-61.31c-48.72-73.54,4.22-136.64,32.44-203.49,42.29-100.17,48.05-254.18-47.17-326.95-25.13-19.21-58.73-18.01-56.76,19.33,50.15,75.85,102.12,131.6,79.84,230.22-19.09,84.53-112.58,162.52-95.16,249.06,2.18,10.84,8.07,20.74,9.49,31.83h-66.65c-11.7-27.96-26.21-55.03-23.93-86.6,2.96-41.11,62.44-85.88,89.28-115.96,36.77-41.22,65.7-86.89,59.62-145-6.75-64.51-60.38-90.2-79.69-141.58-44.58-118.61,112.1-150.69,178.65-64.02,63.86,83.16,35.23,204.93,5.43,296.01-16.1,49.21-46.04,104.37-57.54,153.06-9.99,42.28,7.72,72.37,33.45,104.09Z"/>
                    <path class="cls-2" d="M-43.56,1131.07c55.37,26.46,112.53,41.6,173.32,22.7,33.65-10.46,100.99-59.02,111.79-93.48,13.81-44.05-18.39-65.13-49.28-33.28-25.43,26.22-27.2,55.85-69.04,72.25-55.81,21.88-119.45-26.04-166.79-50.83v-82.64c64.26,13.85,130.47,11.43,196.05,10.77,16.16-.16,32.77-4.04,50.67-2.9,50.01,3.18,78.49,32.86,73.32,84.24-3.93,38.98-54.98,81.48-88.05,98.56-68.62,35.45-160.11,40-231.98,11.94v-37.32Z"/>
                    <path class="cls-2" d="M-43.56,1229.71c67.55,6.19,129.32,4.07,194.6-14.67,59.65-17.13,187.8-69.77,201.4-137.16,18.15-89.93-57.64-146.71-138.78-157.38-84.64-11.13-174.35,9.01-257.22-18.69v-39.99c103.9,26.2,218.24-6.97,320.64,29.92,90.17,32.49,171.8,133.27,100.5,224.6-67.32,86.24-284.04,150.12-390.5,155.98-10.32.57-20.72.69-30.64-2.63v-39.99Z"/>
                    <path class="cls-2" d="M1929.15,1053.76v37.32c-22.28,20.46-53.74,41.28-71.97,65.32-44.12,58.21,2.97,139.24,71.97,142.61v45.32c-74.57-11.79-169.52-54.38-145.35-146.68,11-42.01,73.18-86.33,106.76-114.51,12.29-10.32,25.53-20.07,38.59-29.39Z"/>
                    <path class="cls-2" d="M1320.7,101.41c-13.79,8.31-29.66,4.76-44.81,7.18-33.36,5.34-68.51,34.31-89.2,60.08-17.15,21.35-21.09,53.44-56.51,32.58-11.73-6.91-17.71-18.07-23.38-29.94-58.16-121.79,49.35-160.48,151.17-140.51,35.36,6.94,69.56,30.91,62.73,70.6Z"/>
                    <path class="cls-2" d="M455.46,622.74c-5.84-18.87,5.07-34.09,21.61-41.36,40.22-17.68,136.76-36.73,173.8-10.11,17.24,12.39,44.87,62.84,15.46,71.41-11.02,3.21-59.29,1.13-74.22.68-27.93-.84-95.9-1.9-119.62-8.34-5.02-1.36-15.5-7.33-17.03-12.28Z"/>
                    <path class="cls-2" d="M146.51,332.13c14.72-10.7,62.88,1.29,79.91,7.79,33.94,12.94,59.88,36.73,73.28,70.68,11.76,29.8,10.14,31.17-4.24,58.47-17.41,33.06-68.33,121.67-99.36,137.9-55.96,29.27-153.73-6.34-113.12-81.13,22.66-41.74,57.41-56.82,57.62-115.88.07-19.31-14.64-62.89,5.91-77.83Z"/>
                    <path class="cls-2" d="M1649.75,305.4c-4.09-18.46,9.91-32.75,27.71-35.16,50.04-6.78,136.5,2.73,163.11,52.35,15.65,29.18,20.28,92.26-28.81,79.45-19.37-5.05-130.29-66.55-148.9-80.35-5.16-3.82-11.67-9.76-13.12-16.29Z"/>
                  </g>
                </g>
              </g>
            </g>
          </g>
        </g>
        <g id="Gradient_Background_copy_3-2" data-name="Gradient Background copy 3">
          <rect class="cls-5" x="-12.59" y="-12.54" width="1950.94" height="1118.78"/>
        </g>
        <g id="Gradient_Background_copy_3-3" data-name="Gradient Background copy 3" class="cls-6">
          <rect class="cls-3" x="-12.59" y="-12.54" width="1950.94" height="1113.39"/>
        </g>
      </g>
    </g>
  </g>
</svg>