<?xml version="1.0" encoding="UTF-8"?>
<svg xmlns="http://www.w3.org/2000/svg" xmlns:xlink="http://www.w3.org/1999/xlink" viewBox="0 0 1920 1080">
  <defs>
    <style>
      .cls-1 {
        fill: none;
      }

      .cls-2 {
        fill: #276387;
      }

      .cls-3 {
        fill: url(#radial-gradient-2);
      }

      .cls-4 {
        opacity: .75;
      }

      .cls-4, .cls-5 {
        mix-blend-mode: multiply;
      }

      .cls-6 {
        fill: #3b4199;
      }

      .cls-7 {
        isolation: isolate;
      }

      .cls-8 {
        fill: url(#radial-gradient);
        opacity: .39;
      }

      .cls-9 {
        clip-path: url(#clippath-1);
      }

      .cls-10 {
        clip-path: url(#clippath-2);
      }

      .cls-11 {
        fill: #fff;
      }

      .cls-12 {
        mix-blend-mode: darken;
      }

      .cls-13 {
        opacity: .6;
      }

      .cls-14 {
        opacity: .3;
      }

      .cls-15 {
        fill: #59c2b6;
        stroke: #5ac2b7;
        stroke-miterlimit: 10;
        stroke-width: 10px;
      }
    </style>
    <clipPath id="clippath-1">
      <rect class="cls-1" x="-48.43" y="1116.53" width="1991.12" height="1140.64"/>
    </clipPath>
    <clipPath id="clippath-2">
      <rect class="cls-1" x="-52.77" y="-28.32" width="1991.12" height="1140.64"/>
    </clipPath>
    <radialGradient id="radial-gradient" cx="1445.15" cy="178.81" fx="1445.15" fy="178.81" r="656.84" gradientTransform="translate(-1501.71 382.64) scale(1.76 .82)" gradientUnits="userSpaceOnUse">
      <stop offset="0" stop-color="#59a5da" stop-opacity="0"/>
      <stop offset=".35" stop-color="#4979b9" stop-opacity=".38"/>
      <stop offset=".79" stop-color="#374792" stop-opacity=".83"/>
      <stop offset="1" stop-color="#303484"/>
    </radialGradient>
    <radialGradient id="radial-gradient-2" cx="1463.82" cy="64.98" fx="1463.82" fy="64.98" r="761.51" gradientTransform="translate(-1501.71 388.19) scale(1.76 .81)" gradientUnits="userSpaceOnUse">
      <stop offset="0" stop-color="#59a5da"/>
      <stop offset=".23" stop-color="#4e88c4"/>
      <stop offset=".75" stop-color="#384b96"/>
      <stop offset="1" stop-color="#303484"/>
    </radialGradient>
  </defs>
  <g class="cls-7">
    <g id="Longer_Band_Title_copy" data-name="Longer Band Title copy">
      <g id="Background_copy_7" data-name="Background copy 7">
        <g id="Layer_8_copy_7" data-name="Layer 8 copy 7" class="cls-13">
          <g id="Pattern_Background_copy_7" data-name="Pattern Background copy 7" class="cls-12">
            <g id="Gradient_Background_copy_9" data-name="Gradient Background copy 9">
              <g class="cls-9">
                <g class="cls-14">
                  <g>
                    <path class="cls-2" d="M-39.23,1230.92c66.59-16.31,140.77-61.23,210.02-38.07,45.4,15.19,70.31,65.91,100.46,99.55,51.9,57.9,119.41,80.66,161.83,155.33,14.83,26.11,22.32,80.22,62.84,63.75,25.66-10.43,47.42-88.28,51.02-114.25,6.66-48.08-.33-153.51,54.76-174.5,36.29-13.82,60.72,22.28,77.89,47.81,41.57,61.83,69.43,132.84,113.38,193.2,41.93,57.58,150.2,161.42,226.78,150.37,57.46-8.29,45-63.82,26.49-102.41-55.52-115.79-166.22-187.36-89.9-334.2,21.87-42.08,82.15-136.41,122.29-157.62,122.71-64.84,326.18,102.08,363.76,215.65,8.93,26.98,5.25,65.98-23.32,79.47-42.24,19.95-88.92-17.8-141.41,7.88-53.91,26.37-87.3,155.6-161.25,100-33.32-25.05-87.08-98.59-91.64-140.29-11.44-104.62,77.14-159.22,168.98-168.92,11.66-1.23,47.88,4.65,46.02-16.91-2.58-29.91-69.55-43.31-93.71-41.43-68.65,5.32-88.55,57.96-118.44,108.15-14.44,24.26-34.82,47.48-41.86,75.44-16.91,67.22,33.91,118.78,66.44,170.86,15.45,24.73,35.46,81.71,66.81,85.14,67.63,7.4,109.92-95.17,154.75-130.73,73.11-57.99,145.12,38.12,200.86,76.36,51.01,34.99,102.81,48.34,152.33,92.92,63.62,57.27,66.96,99.33,104.45,167.47,42.54,77.31,132.26,108.87,202.08,44.5v-551.83c-4.68,2.78-4.75,7.25-5.36,11.98-10.22,79.92-30.7,168.17-26.61,247.92,1.82,35.43,18.38,96.21,12.67,127.36-6.16,33.65-61.41,23.43-61.91,57.64-.27,18.36,14.48,34.98,31.1,41.07,8.63,3.16,34.66,4.02,36.74,8.59l-31.1,27.48c-83.6,34.58-91.51-26.95-122.44-79.22-41.77-70.57-106.57-106.86-169.83-152.74-33.97-24.64-66.58-55.78-37.59-100.58,29.04-44.88,90.15-14.92,130.72-11.22,54.99,5.02,139.7-10.07,167.28-64,39.2-76.64,23.42-174.53,76.32-244.92v-103.97c-21.68,39.71-48.65,81.69-63.39,124.55-27.03,78.61-14.51,174.46-100.89,216.34-72.68,35.24-170.89,9.66-234.88-33.71-142.54-96.59-193.32-325.11-409.13-287.74-65.55,11.35-92.07,43.7-139.48,81.79-134.5,108.07-231.66-17.09-367.71-26.7-41.38-2.92-105.11,3.37-138.67,29.5-28.56,22.23-44.3,63.03-72.48,82.14-48.75,33.07-70.77-35-94.31-64.76-21.23-26.85-47.57-46.1-79.41-59.22-44.11-18.18-97.11-13.38-128.41-55.53-74.06-99.71,68.93-218.05,100.55-307.31,13.77-38.86,14.11-79.05.75-117.88h-58.65c25.96,54.36,24.66,106.41-.77,160.51-42.74,90.96-137.99,136.71-129.81,251.31,2.08,29.07,27.95,92.34-22.77,89.53-11.77-.65-18.44-5.57-24.66-15.45l-8.6-32.72v127.96c106.67-6.26,195.83-83.33,298.39-11.81,34.33,23.94,102.5,106.98,114.92,146.32,6.71,21.27,4.61,39.32-18.84,48.02-28.73,10.66-42.56-17.81-54.18-38.96-30.55-55.62-37.87-115.02-115.05-122.21-74.83-6.97-150.97,28.16-225.24,34.63v53.32ZM868.45,1324.26c-49.42-54.51-70.35-122.22-133.32-167.92-145.39-105.53-283.44-27.76-235.7,155.73,4.14,15.91,25.81,63.89,13.93,76.28-24.58,25.65-45.49-24.76-52.69-42.85-88.51-222.29,111.73-371.94,306.45-223.81,77.73,59.13,126.09,146.54,150.68,239.84-5.92,6.13-44.11-31.5-49.34-37.27ZM925.76,1437.54c18.12,20.19,87.98,84.34,92.65,104.69,6.1,26.55-29.02,36.7-50.85,24.14-31.97-18.39-92.14-89.83-116.35-120.91-50.54-64.87-147.44-249.48-228.2-259.65-60.8-7.65-56.66,42.08-87.75,77.04-7.56-5.68-8.59-13.73-9.44-22.51-9.38-97.86,89.92-117.74,161.46-78.82,63.93,34.77,106.45,115.27,150.62,171.95,25.7,32.98,54.22,62.16,81.74,92.85,2.51,2.8,3,7.75,6.11,11.21Z"/>
                    <path class="cls-2" d="M795.18,540.47h122.63c1.21,5.72-2.99,5.85-6.58,7.94-99.23,57.75-207.18,24.71-307.41,55.28-77.01,23.49-118.43,96.55-112.5,175.32,2.19,29.11,14.2,41.62-8.12,69.27-56.27,69.69-175.99,27.07-251.73,25.3-21.46-.5-56.01,6.97-41.07,35.76,13.4,25.82,106.04,45.07,134.3,46.96,79.12,5.28,149.67-24.31,231.85-18.58,108.67,7.58,239.58,82.85,340.8,20.81,58.27-35.71,52.8-94.97,138.99-100.94,19.89-1.38,41.45,1.6,61.38.07,54.75-4.2,98.19-31.42,154.33-4.96,51.71,24.37,81.89,83.69,116.35,126.24,54.43,67.21,132.7,138.95,218.96,159.59,28.46,6.81,69.48,11.32,63.38-31.4-3.51-24.56-42.31-25.47-61.71-31.58-171.29-53.9-186.99-159.36-303.3-264.53-10.28-9.3-40.93-25.05-39.35-39.6,2.48-22.78,37.24-20.92,51.83-8.85,13.88,11.48,49.54,61.81,63.19,79.42,58.59,75.56,91.1,152.9,189.51,183.7,166.32,52.06,288.77-25.59,359.06-174.18l23.52-68.45v61.31c-13.78,22.51-21.32,48.66-33.21,72.09-36.79,72.5-82.76,134.89-116.56,211.34-20.4,46.16-34.13,115.82-97.05,124.22-99.54,13.29-210.72-102.26-271.72-170.35-87.94-98.16-121.91-204.32-282.22-188.99-114.47,10.95-139.79,88.72-229.1,125.45-123.13,50.65-188.81-39.22-301.75-45.78-51.68-3-104.73,11.14-148.73,37.82-33.75,20.46-62.6,65.37-104.49,34.13-25.32-18.89-44.91-41.72-73.52-59.77-31.21-19.69-83.9-34.54-107.88-54.74-22.38-18.85-20.68-65.81,4.93-80.62,27.06-15.65,89.03-2.52,123.28-4.68,140.37-8.85,116.62-99.26,175.99-186.57,80.2-117.94,184.08-83.6,299.81-108.06,7.12-1.5,18.51-4.39,23.92-9.41Z"/>
                    <path class="cls-2" d="M774.84,630.77c-32.11,4.1-66.52,3.73-97.93,8.7-151.2,23.92-170.62,218.44-20.92,270.77,41.5,14.51,140.09,20.44,181.25,6.86,61.58-20.32,45.95-61.51,81.86-86.09,35.41-24.24,123.25-7.99,169.95-16.66,88.73-16.46,158.75-108.35,124.3-197.57-10.9-28.23-32.53-50.66-47.64-76.32h-173.28c-54.29,61.57-139.13,80.28-217.61,90.3ZM903.9,634.53c83.4-21.81,135.94-100.94,228.36-75.25,68.83,19.13,84.62,108.99,41.53,161.2-38.12,46.19-89.54,61.54-147.89,62.71-55.59,1.12-109.25-18.7-150.67,30.61-15.82,18.84-22.81,44.34-39.95,61.35-61.31,60.86-226.56,3.78-239.41-83.4-21.78-147.77,218.43-133.8,308.02-157.22Z"/>
                    <path class="cls-2" d="M1386.99,540.47h103.97c2.58,19.54-11.08,38.09-15.33,55.31-31.58,127.98,44.18,258.82,184.72,248.7,90.11-6.49,135.85-90.74,195.8-140.09,24.52-20.19,45.12-25.53,77.34-22.63v61.31c-49.18-47.84-71.67,18.24-96.46,51.49-67.88,91.04-144.41,133.22-258.75,91.79-101.01-36.6-146.54-128.71-167.91-226.63-8.64-39.62-16.24-79.36-23.37-119.25Z"/>
                    <path class="cls-2" d="M270.01,540.47h218.6c-25.52,26.85-51.81,53.01-70.43,85.52-29.61,51.7-42.6,117.62-95.01,152.92-29.05,19.57-72.66,28.67-103.51,7.85-40.15-27.11-.69-52.03,15.69-74.33,37.36-50.87,66.72-110.04,34.65-171.95Z"/>
                    <path class="cls-2" d="M1235.04,540.47h85.31c27.18,121.61,55.07,248.68,150.55,335.97,78.79,72.04,175.1,100.12,276.49,55.08,47.55-21.12,83.97-56.24,124.77-87.14,3.56,4-33.45,50.38-38.59,56.02-104.84,114.99-270.39,112.65-375.95,0-20.61-21.99-34.71-49.24-51.98-73.31-64.62-90.04-136.44-179.69-170.58-286.61Z"/>
                    <path class="cls-2" d="M1549.61,540.47h47.98c-24.47,49.61-52.25,82.88-45.02,142.33,8.22,67.58,93.96,90.27,146.09,50.72,42.38-32.15,67.81-83.95,119.33-117.93,33.11-21.84,76.13-38.19,115.5-43.12v53.32c-50.7-3.25-91.76,12.47-129.36,45.25-39.24,34.21-65.43,85.46-114.94,106.32-99.57,41.96-195.14-35.35-173.56-141.57,6.7-32.95,28.7-62.06,33.98-95.31Z"/>
                    <path class="cls-2" d="M-39.23,804.39c50.46-55.85,113.34-117.59,81.27-199.9-9.28-23.82-28.89-40.98-38.62-64.02h74.64c7.17,17.77,17.48,35.95,21.07,54.9,19.65,103.66-73.8,170.28-116.56,250.81-9.13,17.19-14.25,36.37-21.81,54.17v-95.97Z"/>
                    <path class="cls-2" d="M-39.23,580.46c57.12,32.43,49.83,100.38,0,135.96v-135.96Z"/>
                    <path class="cls-2" d="M1127.7,615.83c10.57,10.53,13.02,31.44,11.15,45.72-4.87,37.03-60.27,65.4-94.31,68.3-68.12,5.8-158.31-17.2-213.79,35.47-33.52,31.82-25.57,88.21-95.32,78.83-57.26-7.7-100.3-89.2-33.5-118.35,92.46-40.35,205.46-23.25,299.16-71.39,15.53-7.98,30.36-20.89,45.56-29.09,19.59-10.57,62.93-27.55,81.05-9.49Z"/>
                  </g>
                </g>
              </g>
            </g>
          </g>
        </g>
      </g>
    </g>
    <g id="Welcome_Screen" data-name="Welcome Screen">
      <g id="Background_copy" data-name="Background copy">
        <g id="Layer_8_copy" data-name="Layer 8 copy" class="cls-13">
          <g id="Pattern_Background_copy" data-name="Pattern Background copy" class="cls-12">
            <g id="Gradient_Background_copy_3" data-name="Gradient Background copy 3">
              <g class="cls-10">
                <g class="cls-14">
                  <g>
                    <path class="cls-2" d="M-43.56,86.06C23.03,69.75,97.21,24.83,166.45,47.99c45.4,15.19,70.31,65.91,100.46,99.55,51.9,57.9,119.41,80.66,161.83,155.33,14.83,26.11,22.32,80.22,62.84,63.75,25.66-10.43,47.42-88.28,51.02-114.25,6.66-48.08-.33-153.51,54.76-174.5,36.29-13.82,60.72,22.28,77.89,47.81,41.57,61.83,69.43,132.84,113.38,193.2,41.93,57.58,150.2,161.42,226.78,150.37,57.46-8.29,45-63.82,26.49-102.41-55.52-115.79-166.22-187.36-89.9-334.2,21.87-42.08,82.15-136.41,122.29-157.62,122.71-64.84,326.18,102.08,363.76,215.65,8.93,26.98,5.25,65.98-23.32,79.47-42.24,19.95-88.92-17.8-141.41,7.88-53.91,26.37-87.3,155.6-161.25,100-33.32-25.05-87.08-98.59-91.64-140.29-11.44-104.62,77.14-159.22,168.98-168.92,11.66-1.23,47.88,4.65,46.02-16.91-2.58-29.91-69.55-43.31-93.71-41.43-68.65,5.32-88.55,57.96-118.44,108.15-14.44,24.26-34.82,47.48-41.86,75.44-16.91,67.22,33.91,118.78,66.44,170.86,15.45,24.73,35.46,81.71,66.81,85.14,67.63,7.4,109.92-95.17,154.75-130.73,73.11-57.99,145.12,38.12,200.86,76.36,51.01,34.99,102.81,48.34,152.33,92.92,63.62,57.27,66.96,99.33,104.45,167.47,42.54,77.31,132.26,108.87,202.08,44.5V48.74c-4.68,2.78-4.75,7.25-5.36,11.98-10.22,79.92-30.7,168.17-26.61,247.92,1.82,35.43,18.38,96.21,12.67,127.36-6.16,33.65-61.41,23.43-61.91,57.64-.27,18.36,14.48,34.98,31.1,41.07,8.63,3.16,34.66,4.02,36.74,8.59l-31.1,27.48c-83.6,34.58-91.51-26.95-122.44-79.22-41.77-70.57-106.57-106.86-169.83-152.74-33.97-24.64-66.58-55.78-37.59-100.58,29.04-44.88,90.15-14.92,130.72-11.22,54.99,5.02,139.7-10.07,167.28-64,39.2-76.64,23.42-174.53,76.32-244.92v-103.97c-21.68,39.71-48.65,81.69-63.39,124.55-27.03,78.61-14.51,174.46-100.89,216.34-72.68,35.24-170.89,9.66-234.88-33.71-142.54-96.59-193.32-325.11-409.13-287.74-65.55,11.35-92.07,43.7-139.48,81.79-134.5,108.07-231.66-17.09-367.71-26.7-41.38-2.92-105.11,3.37-138.67,29.5-28.56,22.23-44.3,63.03-72.48,82.14-48.75,33.07-70.77-35-94.31-64.76-21.23-26.85-47.57-46.1-79.41-59.22-44.11-18.18-97.11-13.38-128.41-55.53-74.06-99.71,68.93-218.05,100.55-307.31,13.77-38.86,14.11-79.05.75-117.88h-58.65c25.96,54.36,24.66,106.41-.77,160.51C99.53-352.92,4.28-307.16,12.46-192.56c2.08,29.07,27.95,92.34-22.77,89.53-11.77-.65-18.44-5.57-24.66-15.45l-8.6-32.72V-23.24c106.67-6.26,195.83-83.33,298.39-11.81,34.33,23.94,102.5,106.98,114.92,146.32,6.71,21.27,4.61,39.32-18.84,48.02-28.73,10.66-42.56-17.81-54.18-38.96C266.18,64.7,258.86,5.3,181.68-1.89S30.7,26.27-43.56,32.75v53.32ZM864.11,179.41c-49.42-54.51-70.35-122.22-133.32-167.92-145.39-105.53-283.44-27.76-235.7,155.73,4.14,15.91,25.81,63.89,13.93,76.28-24.58,25.65-45.49-24.76-52.69-42.85C367.82-21.65,568.06-171.29,762.78-23.16c77.73,59.13,126.09,146.54,150.68,239.84-5.92,6.13-44.11-31.5-49.34-37.27ZM921.43,292.69c18.12,20.19,87.98,84.34,92.65,104.69,6.1,26.55-29.02,36.7-50.85,24.14-31.97-18.39-92.14-89.83-116.35-120.91-50.54-64.87-147.44-249.48-228.2-259.65-60.8-7.65-56.66,42.08-87.75,77.04-7.56-5.68-8.59-13.73-9.44-22.51-9.38-97.86,89.92-117.74,161.46-78.82,63.93,34.77,106.45,115.27,150.62,171.95,25.7,32.98,54.22,62.16,81.74,92.85,2.51,2.8,3,7.75,6.11,11.21Z"/>
                    <path class="cls-2" d="M-43.56,760.52c56.08,28.88,116.01,51.88,179.83,56.09,81.86,5.41,163.95-36.45,234.62,23.96,48.76,41.68,62.64,113.31,82.16,171.1,2.91,8.6,13.62,41.63,17.72,46.26,11.32,12.76,22.87,1.49,24.34-13.32,7.18-72.25-52.72-189.44-92.89-248.69-46.12-68.03-112.81-122.43-101.21-214.66,7.73-61.47,65.38-102.53,57.68-168.34-6.2-52.96-79.64-107.14-127.12-123.47-62.98-21.66-145.11-29.44-152.17,56.88-1.57,19.18,2.95,35.09,2.44,53.09-2.28,79.45-92.48,116.35-47.58,201.98,38.54,73.53,127.99,52,195.27,65.98,40.17,8.35,56.38,53.61,28.13,83.79-34.37,36.72-139.83,21.43-184.49,8.58-43.03-12.38-80.25-35.6-116.73-60.55v-82.64c15.57,53.96,53.83,91.99,105.9,111.36,27.67,10.29,124.25,27.44,148.89,16.8,24.13-10.42,31.71-42.98-.84-50.22-75.39-16.77-162.16,15.17-203.77-78.81-39.7-89.64,30.66-134.92,35.11-211.15,2.84-48.57-44.46-107.13,20.71-141.85,16.37-8.72,70-16.06,74.71-31.9,9.19-30.92-34.6-48.19-59.09-45.84-42.16,4.04-85.24,51.36-95.81,90.85-10.97,41,1.21,70.89,3.49,110.17,2.74,47.17-9.37,87.07-29.3,129.27V251.35c32.17-55.24,91.71-95.16,157.94-81.96,40.09,7.99,61.72,37.73,91.37,60.58,50.13,38.62,142.46,88.75,168.84,145.73,43.45,93.86-42.5,158.43-39.59,247.47,1.23,37.53,20.54,93.88,60.53,104.82,3.23.89,7.65,2.14,6.04-3.37-9.35-32.05-24.1-50.76-26.7-87.95-6.26-89.33,46.35-136.09,40.21-216.16-6.49-84.64-124.17-156.69-184.09-207.78-32.89-28.05-58.86-65.43-103.33-75.28-65.63-14.53-119.12,5.49-171.21,44.58v-39.99c93.2-33.89,173-76.05,251.99,10.59,4.21,4.62,5.57,10.76,9.25,14.74,92.34,99.67,223.08,146.23,215.91,306.54-2.19,48.85-24.85,89.27-29.32,130.63-4.1,38.01,15.9,71.88,55.31,78.02,37.73,5.88,89.08-.82,129.94,3.35,76.46,7.81,217.57,50.42,258.46,120.09,50.72,86.42,20.26,196.75-20.2,280.69-20.88,43.31-70.99,108.72-83.47,148.46-15.29,48.7,35.08,75.03,63.68,37.02,20.7-27.51,51.9-93.6,67.77-126.83,58.41-122.37,70.6-213.36,53.65-348.8-8.01-64.03-36.09-106.53-93.21-136.05-23.19-11.99-47.69-17.27-69.2-32.11-57.17-39.44-72.56-114.96-150.69-121.22-11.17-.89-28.62-.75-39.76.42-29.92,3.17-78.96,31-86.32-15.63-13.21-83.68,86.42-95.36,143.42-68.78,81.76,38.13,72.3,111.86,129.46,166.45,53.83,51.41,94,41.34,159.64,50.96,94.36,13.82,35.94,90.6,31.03,148.27-8.46,99.35,45.99,121.29,76.35,194.88,11.39,27.61,10.68,44.51-8.68,67.39-31.57,37.32-72.95,54.59-103.78,101.49-34.98,53.22-38.03,104.36-62.42,156.18-45.85,97.42-153.21,39.19-160.36-45.82-5.7-67.71,60.29-188.51,78.64-259.83,23.9-92.87,8.7-190.55-70.87-251.79-114.75-88.31-291.79-8.67-226.45,143.81,28.24,65.9,83.12,121.31,46.82,201.37-16.58,36.57-102.04,117.92-137.73,136.86-12.78,6.78-22,11.08-33.12-.92-17.4-18.78,3.96-29.15,13.54-39.99,61.42-69.55,97.51-154.82,53.16-245.32-69.89-142.6-232.93-99.89-362.17-117.67-35.13-4.84-66.48-13.73-100.3-23.66v-45.32Z"/>
                    <path class="cls-2" d="M1691.97,617.82c-39.29-46.68-41.78-89.39-62.77-142.5-34.47-87.22-121.93-101.12-191.43-149.8-64.21-44.97-105.4-121.66-185.67-32.78-61.87,68.5-115.53,173.43-211.25,199.29-148.96,40.24-277.95-98.18-343.77-214.9-17.97-31.86-34.72-76.7-54.31-105.64-12.96-19.16-32.02-30.51-41.64-1.88-10.74,31.95-10.59,87.68-19.01,124.94-3.3,14.58-20.29,47.63-9.96,58.78,8.29,8.94,66.71,14.42,85.85,21.53,112.2,41.65,88.28,159.95,162.93,202.28,47.45,26.91,114.03,12.15,165.54,18.4,27.68,3.36,50.05,25.56,49.71,54.22-.47,39.65-25.89,90.21-29.37,130.8-7.29,84.96,27.29,135.66,87.89,189.27,38.77,34.29,86.03,67.47,124.89,10.19,26.89-39.64-22.74-73.67-43.32-102.43-24.55-34.31-42.85-111.08-44.18-153.07-4.34-137.35,105.81-433.58,288.73-323.41,130.98,78.89,97.82,278.4,230.23,369.59,68.23,46.99,171.29,34.03,200.02,127.88,37.1,121.18-106.52,165.36-150.43,255.93-39.98,82.47-1.97,151.4,52.55,213.83h69.31c-33-23.64-63.93-46.83-82.17-84.45-59.25-122.22,62.14-171.68,134.27-240.66l54.53-58.77v-186.61c-79.2,15.08-146.49-.46-212.54-44.71-111.73-74.85-118.76-146-177.95-253.92-44.81-81.7-124.16-166.6-226.61-157.18-93.32,8.57-120.97,167.49-203.49,172.67-8.13.51-14.34-3.3-21.85-6.13.13-9.65,31.9-29.71,40.05-37.26,95.86-88.66,120.31-220.1,277.83-147.28,72.88,33.69,138.72,100.2,182.82,166.4,42.93,64.42,72.94,151.38,134.01,199.22,56.57,44.33,138.59,71.07,207.71,41.54v-61.31c-85.27,37.42-177.02,19.42-237.18-52.06ZM852.69,548.05c-22.96-6.94-60.9-37.27-59.06-63.13.52-7.34,7.91-20.33,15.13-22.47,14.03-4.17,45.7,17.68,60.27,23.95,56.1,24.11,104.45,28.04,162.28,40.32,66.92,14.21,106.35,52.16,88.78,124.53-14.83,61.1-40.02,90.31-27.63,160.88,11.21,63.84,42.72,82.64,76.91,128.35,13.53,18.08,4.88,30.5-17.06,27.92-17.35-2.04-53.47-37.83-65.64-51.85-48.56-55.94-59.64-116.09-40.77-187.53,10.56-39.96,56.31-104.72,18.6-140.85-42.13-40.36-155.25-23.01-211.82-40.11Z"/>
                    <path class="cls-2" d="M790.84-604.39h122.63c1.21,5.72-2.99,5.85-6.58,7.94-99.23,57.75-207.18,24.71-307.41,55.28-77.01,23.49-118.43,96.55-112.5,175.32,2.19,29.11,14.2,41.62-8.12,69.27-56.27,69.69-175.99,27.07-251.73,25.3-21.46-.5-56.01,6.97-41.07,35.76,13.4,25.82,106.04,45.07,134.3,46.96,79.12,5.28,149.67-24.31,231.85-18.58,108.67,7.58,239.58,82.85,340.8,20.81,58.27-35.71,52.8-94.97,138.99-100.94,19.89-1.38,41.45,1.6,61.38.07,54.75-4.2,98.19-31.42,154.33-4.96,51.71,24.37,81.89,83.69,116.35,126.24,54.43,67.21,132.7,138.95,218.96,159.59,28.46,6.81,69.48,11.32,63.38-31.4-3.51-24.56-42.31-25.47-61.71-31.58-171.29-53.9-186.99-159.36-303.3-264.53-10.28-9.3-40.93-25.05-39.35-39.6,2.48-22.78,37.24-20.92,51.83-8.85,13.88,11.48,49.54,61.81,63.19,79.42,58.59,75.56,91.1,152.9,189.51,183.7,166.32,52.06,288.77-25.59,359.06-174.18l23.52-68.45v61.31c-13.78,22.51-21.32,48.66-33.21,72.09-36.79,72.5-82.76,134.89-116.56,211.34-20.4,46.16-34.13,115.82-97.05,124.22-99.54,13.29-210.72-102.26-271.72-170.35-87.94-98.16-121.91-204.32-282.22-188.99-114.47,10.95-139.79,88.72-229.1,125.45-123.13,50.65-188.81-39.22-301.75-45.78-51.68-3-104.73,11.14-148.73,37.82-33.75,20.46-62.6,65.37-104.49,34.13-25.32-18.89-44.91-41.72-73.52-59.77-31.21-19.69-83.9-34.54-107.88-54.74-22.38-18.85-20.68-65.81,4.93-80.62,27.06-15.65,89.03-2.52,123.28-4.68,140.37-8.85,116.62-99.26,175.99-186.57,80.2-117.94,184.08-83.6,299.81-108.06,7.12-1.5,18.51-4.39,23.92-9.41Z"/>
                    <path class="cls-2" d="M1030.77,1368.33c40.12-84.7,124.12-115.92,210.05-135.17,98.36-22.04,260.02-39.44,340.51,33.8,28.4,25.85,49.01,64.97,59.91,101.37h39.99c-58.14-82.71-84.97-165.71-31.47-259.4,29.35-51.39,67.45-72.59,102.15-113.79,78.31-92.97-27.95-115.28-89.38-147.94-70.31-37.38-131-93.39-163.03-167.53-31.04-71.84-33.59-215.43-122.91-242.3-28.43-8.55-48.23,11.13-23.36,31.35,26.02,21.15,58.85,42.52,63.86,80.1,7.18,53.87-37.94,90.02-18.27,159.56,36.69,129.78,177.56,248.18,91.03,397.92-65.04,112.56-184.24,67.52-288.49,92.72-94.1,22.74-179.72,78.02-218.57,169.31h47.98ZM1595.45,1121.27c-11.38,17.66-29.49,44.93-48.94,17.89-15.65-21.75,3.28-44.4,9.29-65.54,22.21-78.15.67-147.79-36.73-216.25-25.96-47.52-87.54-115.99-91.05-167.52-.73-10.74-1.97-37.55,14.42-36.03,15.08,1.39,37.66,48.33,47.33,62.23,13.66,19.63,30.22,37.46,43.92,56.01,88.23,119.44,158.4,199.23,61.76,349.22Z"/>
                    <path class="cls-2" d="M900.14,1368.33c19.11-130.15,96.37-236.51,219.45-285.72,65.85-26.33,149.34-28.38,193.69-91.55,55.34-78.84-1.2-163.95-10.56-245.23-6.44-55.95,9.11-107.93,5.39-157.37-1.44-19.1-6.98-32.36-28.16-33.32-15.17-.69-22.36,7.76-26.68,21.35-18.3,57.55-8,149.31,2.21,208.58,4.43,25.71,32.79,92.58-21.4,74.7-13.52-4.46-22.05-20.96-24.55-34.09-5.03-26.35-7.17-70.75-8.26-98.37-2.27-57.5-1.81-277.85,108.56-220.52,20.28,10.54,35.93,32.59,37.92,55.44,2.13,24.5-16.21,56.78-20.4,83.01-8.19,51.24,3.53,96.21,23.7,142.9,36.32,84.11,137.51,173.96,76.46,269.15-42.05,65.57-130.51,51.2-197.28,63.97-128.15,24.52-263.97,118.83-303.42,247.07h-26.66Z"/>
                    <path class="cls-2" d="M665.55,1368.33h-61.31c-48.72-73.54,4.22-136.64,32.44-203.49,42.29-100.17,48.05-254.18-47.17-326.95-25.13-19.21-58.73-18.01-56.76,19.33,50.15,75.85,102.12,131.6,79.84,230.22-19.09,84.53-112.58,162.52-95.16,249.06,2.18,10.84,8.07,20.74,9.49,31.83h-66.65c-11.7-27.96-26.21-55.03-23.93-86.6,2.96-41.11,62.44-85.88,89.28-115.96,36.77-41.22,65.7-86.89,59.62-145-6.75-64.51-60.38-90.2-79.69-141.58-44.58-118.61,112.1-150.69,178.65-64.02,63.86,83.16,35.23,204.93,5.43,296.01-16.1,49.21-46.04,104.37-57.54,153.06-9.99,42.28,7.72,72.37,33.45,104.09Z"/>
                    <path class="cls-2" d="M-43.56,1131.07c55.37,26.46,112.53,41.6,173.32,22.7,33.65-10.46,100.99-59.02,111.79-93.48,13.81-44.05-18.39-65.13-49.28-33.28-25.43,26.22-27.2,55.85-69.04,72.25-55.81,21.88-119.45-26.04-166.79-50.83v-82.64c64.26,13.85,130.47,11.43,196.05,10.77,16.16-.16,32.77-4.04,50.67-2.9,50.01,3.18,78.49,32.86,73.32,84.24-3.93,38.98-54.98,81.48-88.05,98.56-68.62,35.45-160.11,40-231.98,11.94v-37.32Z"/>
                    <path class="cls-2" d="M-43.56,1229.71c67.55,6.19,129.32,4.07,194.6-14.67,59.65-17.13,187.8-69.77,201.4-137.16,18.15-89.93-57.64-146.71-138.78-157.38-84.64-11.13-174.35,9.01-257.22-18.69v-39.99c103.9,26.2,218.24-6.97,320.64,29.92,90.17,32.49,171.8,133.27,100.5,224.6-67.32,86.24-284.04,150.12-390.5,155.98-10.32.57-20.72.69-30.64-2.63v-39.99Z"/>
                    <path class="cls-2" d="M1929.15,1053.76v37.32c-22.28,20.46-53.74,41.28-71.97,65.32-44.12,58.21,2.97,139.24,71.97,142.61v45.32c-74.57-11.79-169.52-54.38-145.35-146.68,11-42.01,73.18-86.33,106.76-114.51,12.29-10.32,25.53-20.07,38.59-29.39Z"/>
                    <path class="cls-2" d="M1320.7,101.41c-13.79,8.31-29.66,4.76-44.81,7.18-33.36,5.34-68.51,34.31-89.2,60.08-17.15,21.35-21.09,53.44-56.51,32.58-11.73-6.91-17.71-18.07-23.38-29.94-58.16-121.79,49.35-160.48,151.17-140.51,35.36,6.94,69.56,30.91,62.73,70.6Z"/>
                    <path class="cls-2" d="M455.46,622.74c-5.84-18.87,5.07-34.09,21.61-41.36,40.22-17.68,136.76-36.73,173.8-10.11,17.24,12.39,44.87,62.84,15.46,71.41-11.02,3.21-59.29,1.13-74.22.68-27.93-.84-95.9-1.9-119.62-8.34-5.02-1.36-15.5-7.33-17.03-12.28Z"/>
                    <path class="cls-2" d="M146.51,332.13c14.72-10.7,62.88,1.29,79.91,7.79,33.94,12.94,59.88,36.73,73.28,70.68,11.76,29.8,10.14,31.17-4.24,58.47-17.41,33.06-68.33,121.67-99.36,137.9-55.96,29.27-153.73-6.34-113.12-81.13,22.66-41.74,57.41-56.82,57.62-115.88.07-19.31-14.64-62.89,5.91-77.83Z"/>
                    <path class="cls-2" d="M1649.75,305.4c-4.09-18.46,9.91-32.75,27.71-35.16,50.04-6.78,136.5,2.73,163.11,52.35,15.65,29.18,20.28,92.26-28.81,79.45-19.37-5.05-130.29-66.55-148.9-80.35-5.16-3.82-11.67-9.76-13.12-16.29Z"/>
                  </g>
                </g>
              </g>
            </g>
          </g>
        </g>
        <g id="Gradient_Background_copy_3-2" data-name="Gradient Background copy 3">
          <rect class="cls-8" x="-12.59" y="-12.54" width="1950.94" height="1118.78"/>
        </g>
        <g id="Gradient_Background_copy_3-3" data-name="Gradient Background copy 3" class="cls-5">
          <rect class="cls-3" x="-12.59" y="-12.54" width="1950.94" height="1113.39"/>
        </g>
      </g>
      <g id="Event_Title" data-name="Event Title">
        <g>
          <path class="cls-11" d="M663.14,170.52c-2.81-2.08-4.32-5.06-4.54-8.94h11.15c.11,1.32.5,2.28,1.17,2.88.68.6,1.55.91,2.61.91.96,0,1.75-.24,2.38-.72.62-.48.93-1.15.93-2,0-1.1-.52-1.96-1.55-2.56-1.03-.6-2.7-1.28-5.02-2.03-2.45-.82-4.44-1.61-5.95-2.37-1.51-.76-2.83-1.89-3.95-3.36-1.12-1.48-1.68-3.41-1.68-5.79s.6-4.49,1.81-6.22c1.21-1.73,2.88-3.03,5.02-3.92,2.13-.89,4.55-1.33,7.26-1.33,4.38,0,7.87,1.02,10.49,3.07,2.61,2.05,4.01,4.92,4.19,8.62h-11.37c-.04-1.14-.38-1.99-1.04-2.56-.66-.57-1.5-.85-2.53-.85-.78,0-1.42.23-1.92.69-.5.46-.75,1.12-.75,1.97,0,.71.28,1.33.83,1.84.55.52,1.24.96,2.05,1.33.82.37,2.03.85,3.63,1.41,2.38.82,4.35,1.63,5.9,2.43,1.55.8,2.88,1.92,4,3.36s1.68,3.26,1.68,5.47-.56,4.25-1.68,6.03c-1.12,1.78-2.74,3.18-4.86,4.22-2.12,1.03-4.62,1.55-7.5,1.55-4.38,0-7.97-1.04-10.78-3.12Z"/>
          <path class="cls-11" d="M705.11,171.78c-2.37-1.24-4.22-3.02-5.58-5.34-1.35-2.31-2.03-5.03-2.03-8.16s.68-5.8,2.05-8.11c1.37-2.31,3.24-4.09,5.6-5.34,2.37-1.24,5.04-1.87,8.03-1.87s5.67.62,8.03,1.87c2.37,1.25,4.23,3.02,5.6,5.34,1.37,2.31,2.05,5.02,2.05,8.11s-.69,5.81-2.05,8.14c-1.37,2.33-3.25,4.12-5.63,5.36-2.38,1.25-5.07,1.87-8.06,1.87s-5.67-.62-8.03-1.87ZM716.79,162.95c.98-1.08,1.47-2.64,1.47-4.67s-.49-3.58-1.47-4.64c-.98-1.07-2.18-1.6-3.6-1.6s-2.61.53-3.58,1.6c-.96,1.07-1.44,2.61-1.44,4.64s.46,3.63,1.39,4.7c.92,1.07,2.12,1.6,3.58,1.6s2.68-.54,3.66-1.63Z"/>
          <path class="cls-11" d="M767.35,146.51c2.03,2.29,3.04,5.4,3.04,9.31v17.45h-10.46v-16.06c0-1.71-.45-3.05-1.33-4.03-.89-.98-2.08-1.47-3.58-1.47s-2.79.49-3.68,1.47c-.89.98-1.33,2.32-1.33,4.03v16.06h-10.46v-29.94h10.46v4.27c.92-1.35,2.17-2.45,3.74-3.28,1.56-.84,3.36-1.25,5.39-1.25,3.45,0,6.19,1.15,8.22,3.44Z"/>
          <path class="cls-11" d="M798.92,144.19c1.51.82,2.68,1.92,3.5,3.31v-4.16h10.46v29.62c0,2.81-.53,5.34-1.6,7.6-1.07,2.26-2.73,4.06-4.99,5.42-2.26,1.35-5.11,2.03-8.56,2.03-4.62,0-8.32-1.09-11.1-3.25-2.77-2.17-4.36-5.12-4.75-8.86h10.3c.21.96.75,1.71,1.6,2.24.85.53,1.96.8,3.31.8,3.56,0,5.34-1.99,5.34-5.98v-3.84c-.82,1.39-1.98,2.49-3.5,3.31-1.51.82-3.28,1.23-5.31,1.23-2.38,0-4.54-.62-6.48-1.87-1.94-1.24-3.47-3.03-4.59-5.36-1.12-2.33-1.68-5.04-1.68-8.14s.56-5.8,1.68-8.11c1.12-2.31,2.65-4.09,4.59-5.34,1.94-1.24,4.1-1.87,6.48-1.87,2.03,0,3.8.41,5.31,1.23ZM800.84,153.74c-1.05-1.1-2.34-1.65-3.87-1.65s-2.86.54-3.9,1.63c-1.03,1.09-1.55,2.61-1.55,4.56s.52,3.44,1.55,4.56c1.03,1.12,2.33,1.68,3.9,1.68s2.82-.55,3.87-1.65c1.05-1.1,1.57-2.63,1.57-4.59s-.53-3.43-1.57-4.54Z"/>
          <path class="cls-11" d="M850.52,138.03c2.97,1.58,5.26,3.8,6.86,6.64,1.6,2.85,2.4,6.1,2.4,9.77s-.81,6.87-2.43,9.71c-1.62,2.85-3.91,5.08-6.88,6.7-2.97,1.62-6.41,2.43-10.33,2.43h-14.89v-37.62h14.89c3.95,0,7.41.79,10.38,2.37ZM846.54,161.53c1.74-1.67,2.61-4.04,2.61-7.1s-.87-5.49-2.61-7.18c-1.74-1.69-4.14-2.53-7.2-2.53h-3.63v19.32h3.63c3.06,0,5.46-.84,7.2-2.51Z"/>
          <path class="cls-11" d="M885.6,144.56c1.67-1,3.47-1.49,5.39-1.49v11.15h-2.94c-2.28,0-3.97.45-5.07,1.33-1.1.89-1.65,2.44-1.65,4.64v13.07h-10.46v-29.94h10.46v5.28c1.17-1.71,2.6-3.06,4.27-4.06Z"/>
          <path class="cls-11" d="M901.96,139.04c-1.12-1.01-1.68-2.29-1.68-3.82s.56-2.86,1.68-3.9c1.12-1.03,2.61-1.55,4.46-1.55s3.28.52,4.4,1.55c1.12,1.03,1.68,2.33,1.68,3.9s-.56,2.8-1.68,3.82c-1.12,1.01-2.59,1.52-4.4,1.52s-3.33-.51-4.46-1.52ZM911.59,143.33v29.94h-10.46v-29.94h10.46Z"/>
          <path class="cls-11" d="M938.32,163.4l5.6-20.06h11.15l-10.3,29.94h-13.02l-10.3-29.94h11.15l5.71,20.06Z"/>
          <path class="cls-11" d="M993.45,160.41h-19.8c.11,1.64.56,2.85,1.36,3.66.8.8,1.82,1.2,3.07,1.2,1.74,0,2.99-.78,3.74-2.35h11.15c-.46,2.06-1.36,3.9-2.69,5.52-1.33,1.62-3.01,2.89-5.04,3.82-2.03.93-4.27,1.39-6.72,1.39-2.95,0-5.58-.62-7.87-1.87-2.29-1.24-4.09-3.02-5.39-5.34-1.3-2.31-1.95-5.03-1.95-8.16s.64-5.84,1.92-8.14c1.28-2.29,3.07-4.06,5.36-5.31,2.29-1.24,4.94-1.87,7.92-1.87s5.57.61,7.84,1.81c2.28,1.21,4.06,2.94,5.34,5.2,1.28,2.26,1.92,4.92,1.92,7.98,0,.82-.05,1.64-.16,2.45ZM982.93,155.34c0-1.28-.43-2.29-1.28-3.02-.85-.73-1.92-1.09-3.2-1.09s-2.33.35-3.15,1.04c-.82.69-1.35,1.72-1.6,3.07h9.23Z"/>
          <path class="cls-11" d="M1049.02,154.41c-1.05,1.87-2.63,3.36-4.75,4.48-2.12,1.12-4.71,1.68-7.76,1.68h-5.18v12.7h-10.46v-37.62h15.64c3.02,0,5.59.53,7.71,1.6,2.12,1.07,3.71,2.54,4.78,4.43,1.07,1.89,1.6,4.06,1.6,6.51,0,2.28-.53,4.35-1.57,6.22ZM1039.93,148.19c0-2.74-1.48-4.11-4.43-4.11h-4.16v8.16h4.16c2.95,0,4.43-1.35,4.43-4.06Z"/>
          <path class="cls-11" d="M1075.94,144.56c1.67-1,3.47-1.49,5.39-1.49v11.15h-2.94c-2.28,0-3.97.45-5.07,1.33-1.1.89-1.65,2.44-1.65,4.64v13.07h-10.46v-29.94h10.46v5.28c1.17-1.71,2.6-3.06,4.27-4.06Z"/>
          <path class="cls-11" d="M1119.92,160.41h-19.8c.11,1.64.56,2.85,1.36,3.66.8.8,1.82,1.2,3.07,1.2,1.74,0,2.99-.78,3.74-2.35h11.15c-.46,2.06-1.36,3.9-2.69,5.52-1.33,1.62-3.01,2.89-5.04,3.82-2.03.93-4.27,1.39-6.72,1.39-2.95,0-5.58-.62-7.87-1.87-2.29-1.24-4.09-3.02-5.39-5.34-1.3-2.31-1.95-5.03-1.95-8.16s.64-5.84,1.92-8.14c1.28-2.29,3.07-4.06,5.36-5.31,2.29-1.24,4.94-1.87,7.92-1.87s5.57.61,7.84,1.81c2.28,1.21,4.06,2.94,5.34,5.2,1.28,2.26,1.92,4.92,1.92,7.98,0,.82-.05,1.64-.16,2.45ZM1109.4,155.34c0-1.28-.43-2.29-1.28-3.02-.85-.73-1.92-1.09-3.2-1.09s-2.33.35-3.15,1.04c-.82.69-1.35,1.72-1.6,3.07h9.23Z"/>
          <path class="cls-11" d="M1136.27,172.28c-2.12-.91-3.79-2.15-5.02-3.74-1.23-1.58-1.91-3.37-2.05-5.36h10.14c.14.96.59,1.71,1.33,2.24s1.67.8,2.77.8c.85,0,1.53-.18,2.03-.53.5-.35.75-.82.75-1.39,0-.75-.41-1.3-1.23-1.65-.82-.35-2.17-.75-4.06-1.17-2.13-.43-3.91-.91-5.34-1.44-1.42-.53-2.66-1.4-3.71-2.61-1.05-1.21-1.57-2.85-1.57-4.91,0-1.78.48-3.39,1.44-4.83.96-1.44,2.38-2.59,4.24-3.44,1.87-.85,4.12-1.28,6.75-1.28,3.91,0,6.99.96,9.23,2.88,2.24,1.92,3.54,4.45,3.9,7.58h-9.45c-.18-.96-.6-1.7-1.25-2.21-.66-.52-1.54-.77-2.64-.77-.85,0-1.5.16-1.95.48s-.67.77-.67,1.33c0,.71.41,1.25,1.23,1.63.82.37,2.13.76,3.95,1.15,2.17.46,3.98.98,5.42,1.55,1.44.57,2.7,1.49,3.79,2.75,1.08,1.26,1.63,2.98,1.63,5.15,0,1.74-.51,3.31-1.52,4.7-1.01,1.39-2.46,2.48-4.32,3.28s-4.06,1.2-6.59,1.2c-2.7,0-5.11-.45-7.23-1.36Z"/>
          <path class="cls-11" d="M1195.9,160.41h-19.8c.11,1.64.56,2.85,1.36,3.66.8.8,1.82,1.2,3.07,1.2,1.74,0,2.99-.78,3.74-2.35h11.15c-.46,2.06-1.36,3.9-2.69,5.52-1.33,1.62-3.01,2.89-5.04,3.82-2.03.93-4.27,1.39-6.72,1.39-2.95,0-5.58-.62-7.87-1.87-2.29-1.24-4.09-3.02-5.39-5.34-1.3-2.31-1.95-5.03-1.95-8.16s.64-5.84,1.92-8.14c1.28-2.29,3.07-4.06,5.36-5.31,2.29-1.24,4.94-1.87,7.92-1.87s5.57.61,7.84,1.81c2.28,1.21,4.06,2.94,5.34,5.2,1.28,2.26,1.92,4.92,1.92,7.98,0,.82-.05,1.64-.16,2.45ZM1185.39,155.34c0-1.28-.43-2.29-1.28-3.02-.85-.73-1.92-1.09-3.2-1.09s-2.33.35-3.15,1.04c-.82.69-1.35,1.72-1.6,3.07h9.23Z"/>
          <path class="cls-11" d="M1234.54,146.51c2.03,2.29,3.04,5.4,3.04,9.31v17.45h-10.46v-16.06c0-1.71-.45-3.05-1.33-4.03-.89-.98-2.08-1.47-3.58-1.47s-2.79.49-3.68,1.47c-.89.98-1.33,2.32-1.33,4.03v16.06h-10.46v-29.94h10.46v4.27c.92-1.35,2.17-2.45,3.74-3.28,1.56-.84,3.36-1.25,5.39-1.25,3.45,0,6.19,1.15,8.22,3.44Z"/>
          <path class="cls-11" d="M1267.41,164.36v8.91h-4.54c-7.65,0-11.47-3.79-11.47-11.37v-9.87h-3.68v-8.7h3.68v-7.26h10.51v7.26h5.44v8.7h-5.44v10.03c0,.82.19,1.41.56,1.76.37.36,1,.53,1.89.53h3.04Z"/>
          <path class="cls-11" d="M1284.14,172.28c-2.12-.91-3.79-2.15-5.02-3.74-1.23-1.58-1.91-3.37-2.05-5.36h10.14c.14.96.59,1.71,1.33,2.24s1.67.8,2.77.8c.85,0,1.53-.18,2.03-.53.5-.35.75-.82.75-1.39,0-.75-.41-1.3-1.23-1.65-.82-.35-2.17-.75-4.06-1.17-2.13-.43-3.91-.91-5.34-1.44-1.42-.53-2.66-1.4-3.71-2.61-1.05-1.21-1.57-2.85-1.57-4.91,0-1.78.48-3.39,1.44-4.83.96-1.44,2.38-2.59,4.24-3.44,1.87-.85,4.12-1.28,6.75-1.28,3.91,0,6.99.96,9.23,2.88,2.24,1.92,3.54,4.45,3.9,7.58h-9.45c-.18-.96-.6-1.7-1.25-2.21-.66-.52-1.54-.77-2.64-.77-.85,0-1.5.16-1.95.48s-.67.77-.67,1.33c0,.71.41,1.25,1.23,1.63.82.37,2.13.76,3.95,1.15,2.17.46,3.98.98,5.42,1.55,1.44.57,2.7,1.49,3.79,2.75,1.08,1.26,1.63,2.98,1.63,5.15,0,1.74-.51,3.31-1.52,4.7-1.01,1.39-2.46,2.48-4.32,3.28s-4.06,1.2-6.59,1.2c-2.7,0-5.11-.45-7.23-1.36Z"/>
        </g>
        <g id="Layer_19" data-name="Layer 19" class="cls-5">
          <path class="cls-15" d="M1067.45,287.16c40.68,42.62,11.94,111.29-12.04,155.25-9.85,18.05-64.65,87.16-62.58,97.52s75.77,87.04,83.17,81.87c27.15-38.51,71.21-184.4,120.28-187.68,19.44-1.3,52.03,14.89,54.87,35.81,6,44.3-100.18,197.87-96.86,212.78,1.41,6.32,71.03,44.19,83.78,52.64,3.19,2.12,25.25,5.58,12.88,15.96-19.04,15.99-110.91-37.82-119.89-37.1-9.03.72-74.72,88.02-142.35,95.45-118.2,13-191.52-48.44-148.91-168.32,9.75-27.44,73.95-125.21,74.14-132.81.28-11.32-25.82-53.13-31.78-71.7-16.7-52.03-21.21-112.08,19.09-155.04,41.17-43.88,126.87-35.83,166.19,5.38ZM1011.04,272.31c-19.08-16.36-69.06,36.47-77.76,54.45-6.17,12.75-13.24,37.67-12.89,51.85.19,7.77,16.68,78.38,19.73,81.23,7.15,6.7,14.71-6.58,18.32-10.77,23.13-26.81,57.11-86.86,59.59-122.09.62-8.9-3.84-51.97-6.99-54.67ZM962.75,576.57c-32.2,47.17-73.57,117.56-60.16,176.66,1.85,8.17,13.44,28.23,21.19,28.88,28.11,2.36,110.33-91.44,125.3-118.28l-86.33-87.26Z"/>
        </g>
        <g>
          <g class="cls-4">
            <path class="cls-6" d="M340.52,649.76c18.24,6.07,26.4,17.43,23.93,33.73-3.99,26.36-25.83,37.52-61.74,38.12-32.48.44-48.44-14.57-44.83-41.01,2.28-15.96,10.45-26.09,19.95-25.38,14.44,1.13,13.49,16.97,23.93,17.63,3.61.23,7.98-.38,8.74-6.36.95-5.98-5.32-9.69-13.11-13.11-11.97-5.28-27.73-9.46-25.45-26.49,2.47-17.47,20.51-28.44,48.06-28.6,10.26.02,21.84.69,30.77,3.7,8.93,2.98,14.63,8.87,13.49,18.31-1.9,15.11-11.59,23.43-18.43,23.12-5.89-.29-9.5-4.51-12.73-8.98-3.04-4.04-5.89-7.49-10.26-7.67-3.04-.13-6.08,1.61-6.84,6.64-1.33,10.4,16.91,13.75,24.5,16.35Z"/>
            <path class="cls-6" d="M479.19,705.43c-1.9,10.36-19.38,15.49-31.34,15.58-14.82-.08-26.97-4.66-24.69-18.02,1.33-7.95,8.17-12.6,9.5-20.99.76-5.83-3.04-10.13-9.31-10.33-5.32-.2-11.59,3.6-11.78,10.53-.19,7.75,7.03,13.76,5.51,22.97-1.9,10.57-19.38,16.47-31.34,16.6-18.81.05-26.4-8.44-23.93-23.58,2.47-15.53,14.44-29.52,17.1-48.4,1.71-13.49-7.22-13.91-5.89-25.32,1.71-12.9,20.14-27.36,36.85-27.51,11.21-.02,13.11,8.73,11.97,18.09-1.33,11.97-5.13,23.77-7.41,34.22,10.07-8.93,24.31-17.38,38.94-17.13,15.39.1,26.4,8.61,24.12,26.56-1.52,11.19-6.65,16.26-7.98,24.74-1.9,12.82,11.21,12.73,9.69,21.97Z"/>
            <path class="cls-6" d="M577.59,693.53c1.14,5.14,4.37,8.23,3.42,13.55-1.71,9.5-11.97,13.92-26.78,13.99-11.21-.02-19.38-2.55-21.27-7.44-5.13,4.89-17.86,8.13-29.63,8.15-16.34-.04-25.83-6.29-23.55-18.43,2.09-12.28,11.97-20.44,35.52-26.87,10.26-3.05,18.62-5.47,19.95-14.4.57-5.01-2.28-7.79-6.84-7.81-6.46-.05-9.5,4.73-12.35,9.63-3.23,5.32-6.84,10.48-15.2,10.36-7.41-.13-11.4-5.11-10.26-13.5,2.28-16.23,22.23-28.07,49.01-27.89,31.34-.36,42.74,17.92,38.56,46.26-.95,7.04-1.14,11.63-.57,14.39ZM523.65,702.42c5.7-.14,10.07-2.88,11.02-17.55-9.5.62-16.15,5.46-17.1,11.33-.57,3.8,1.52,6.19,6.08,6.22Z"/>
            <path class="cls-6" d="M641.8,680.28c-4.18.04-9.31,1.96-10.07,6.94-1.33,8.22,7.41,9.96,5.89,18.46-1.9,10.21-14.25,15.34-31.34,15.39-17.1-.09-26.59-5.37-24.5-16.59,1.9-10.86,12.16-13.01,14.25-25.95,1.71-12.25-7.79-9.07-6.46-18.99,1.52-12.54,21.09-25.35,31.91-25.41,8.55-.1,12.54,6.88,11.02,17.65,0,.65-.76,5.63-.95,6.43,9.12-15.68,19.75-25.58,30.01-25.59,8.74-.13,13.68,13.7,11.59,29.22-1.9,14.48-7.03,21.38-13.87,21.57-6.65.11-8.74-3.23-17.48-3.12Z"/>
            <path class="cls-6" d="M757.29,694.68c-2.66,17.66-19.95,27.11-45.78,27.09-29.63-.45-45.4-10.89-41.22-38.2,4.18-27.47,26.78-51.78,57.75-51.93,19.38-.36,31.15,10.65,29.06,25.66-2.66,19.01-23.74,24.3-39.7,24.8-3.42.08-7.03-.19-10.83-.47-.76-.16-1.71.57-2.09,1.28-.38.71-.19,1.58.57,2.26,2.28,2.03,7.22,2.95,15.2,2.77,8.93-.17,18.05-5.27,26.02-5.5,8.93-.28,12.35,3.36,11.02,12.22ZM712.08,670.9c7.22.19,14.25-3.85,15.2-11.21.57-3.39-2.28-5.78-6.65-5.68-6.27.14-12.35,5.21-13.3,10.68-.57,3.52,1.33,6.1,4.75,6.22Z"/>
            <path class="cls-6" d="M889.12,688.54c1.52,4.06,3.99,7.92,2.85,14.87-1.52,10.45-14.82,17.29-32.1,17.26-18.24-.09-26.78-5.99-24.69-18.71.57-4,1.71-7.27,3.42-10.09-7.03-2.22-11.78-5.38-14.44-9.58-5.32-8.61-4.18-17.23-2.66-28.76,1.9-13.67-6.27-14.83-5.13-23.31,2.47-19.9,25.64-30.93,40.08-30.78,13.87-.03,17.29,6.83,15.77,18.7-1.14,8.86-6.46,12.73-7.6,20.71-.76,6.31,2.85,9.12,8.17,8.94,4.75-.18,10.26-2.32,11.02-8.15.95-6.88-5.32-5.25-4.18-13.51,1.71-13.55,19.76-26.9,37.61-26.83,12.92-.03,17.1,5.98,15.2,20.85-5.13,38.5-21.28,59.62-43.31,68.42Z"/>
            <path class="cls-6" d="M1021.15,672.11c-4.37,32.58-23.36,49.97-55.28,49.67-28.68-.37-45.78-16.88-41.6-45.84,3.99-28.38,25.45-49.98,55.28-50.59,29.25-.67,45.97,16.22,41.6,46.76ZM986.01,664.98c.19-5.13-1.52-15.9-8.36-15.63-7.03.29-9.5,11.46-9.5,16.37,0,5.12,1.71,15.96,8.36,15.71,6.65-.23,9.31-11.32,9.5-16.46Z"/>
            <path class="cls-6" d="M1122.02,700.12c-1.33,11.08-12.54,20.41-25.07,20.37-9.5,0-17.29-6.41-21.66-16.97-7.22,11.03-19,18.09-29.44,18.05-16.34-.08-26.97-9.86-25.07-23.04,1.71-13.02,8.74-21.79,10.45-33.91,1.52-10.55-6.84-12.83-5.89-19.66,1.9-10.31,19.95-22.52,36.28-22.89,10.83-.27,13.87,6.01,12.54,15.43-1.14,8.51-5.13,15.83-6.08,23.9-.38,5.18,2.09,10.14,6.84,9.96,4.75-.18,7.6-5.76,8.36-11.34,1.52-10.73-5.7-9.08-4.56-16.41,1.52-11.1,18.81-22.6,36.28-22.98,10.45-.24,14.63,5.89,13.3,15.66-1.9,12.71-8.55,24.3-10.07,35.44-1.71,13.23,5.51,15.72,3.8,28.38Z"/>
            <path class="cls-6" d="M1182.61,661.99c-4.18.15-9.31,2.24-10.07,8.1-1.33,10.01,7.41,12.01,5.89,24.37-1.9,15.35-14.25,26.03-31.34,25.96-17.1-.01-26.59-10.73-24.5-26.83,1.9-14.94,12.16-17.94,14.25-32.34,1.71-12.74-7.79-9.11-6.46-18.47,1.52-11.53,21.09-21.43,31.91-21.65,8.55-.18,12.54,4.6,11.02,13.68,0,.52-.76,4.85-.95,5.6,9.12-14.07,19.76-20.78,30.01-21.05,8.74-.14,13.68,9.2,11.59,23.56-1.9,13.49-7.03,22.17-13.87,22.31-6.65.2-8.74-3.51-17.48-3.22Z"/>
            <path class="cls-6" d="M1375.23,648.16c-5.51,39.98-31.15,72.91-71.99,72.09-31.91.13-46.35-15.05-43.31-40.35,2.47-19.99,15.58-26.81,18.24-45.32,1.33-8.28-9.69-8.93-8.17-17.35,1.9-11.68,26.21-19.44,56.23-19.39,36.09.69,54.52,12.27,49.01,50.32ZM1336.29,630.27c-1.14-5.95-4.56-12.23-12.35-12.12-8.17.08-13.3,10.54-11.02,23.95,1.52,8.02,5.7,14.6,12.73,14.47,7.6-.14,12.73-14.43,10.64-26.3Z"/>
            <path class="cls-6" d="M1462.42,678.27c-2.66,23.54-19.95,43.62-45.78,43.51-29.63.3-45.4-27.25-41.22-59.75,4.18-31.73,26.78-45.12,57.75-45.37,19.38.1,31.15,7.35,29.06,20.62-2.66,17.3-23.74,24.15-39.7,23.95-3.42,0-7.03-.41-10.83-.81-.76-.2-1.71.62-2.09,1.44-.38.82-.19,1.86.57,2.69,2.28,2.5,7.22,3.78,15.2,3.79,8.93-.02,18.05-5.86,26.02-5.78,8.93.12,12.35,4.03,11.02,15.72ZM1417.21,648.92c7.22.4,14.25-3.72,15.2-10.37.57-3.05-2.28-5.11-6.65-5.12-6.27,0-12.35,4.12-13.3,9.29-.57,3.32,1.33,6.01,4.75,6.2Z"/>
            <path class="cls-6" d="M1601.66,720.34c-13.68.16-25.07-9.7-22.79-29.28,1.33-11.3,7.6-17.21,8.93-26.68.95-7-2.47-11.11-8.55-11.35-6.08-.23-10.45,5.38-11.21,11.68-1.52,10.85,6.65,15.77,5.13,28.47-1.9,15.73-18.62,27.09-29.82,27.09-13.87.17-25.26-10.15-22.98-30.29,1.33-11.62,7.79-17.72,9.12-27.34.95-6.9-2.47-11.15-8.55-11.3-6.08-.13-10.26,5.15-11.21,11.92-1.33,11,6.46,15.9,4.94,28.96-1.9,16.22-18.43,28.06-29.63,28.02-12.92.12-25.07-12.09-22.98-30.81,1.9-16.02,11.78-19.6,13.68-33.94,1.71-13.03-7.03-11.22-5.89-18.65,1.71-11.01,20.14-19.06,30.39-18.95,7.98.13,11.4,4.78,10.07,13.43,0,.51-.19,1.19-.38,1.88,9.88-8.82,24.31-15.57,39.51-15.29,12.73.29,20.9,4.41,22.42,13.73,10.45-7.91,23.17-12.59,35.9-12.23,14.44.51,24.88,6.2,22.41,22.05-1.52,10.2-6.46,15.35-7.79,24.81-1.9,15.11,10.64,15.53,9.12,28.47-1.9,14.98-18.62,25.61-29.82,25.64Z"/>
            <path class="cls-6" d="M1731.97,673.09c-4.37,31.16-23.36,48.23-55.28,48.68-28.68.57-45.78-23.79-41.6-54.93,3.99-29.62,25.45-45.23,55.28-44.2,29.25,1.14,45.97,20.51,41.6,50.45ZM1696.83,661.83c.19-5.18-1.52-16.03-8.36-16.47-7.03-.49-9.5,10.21-9.5,15.24,0,5.14,1.71,16.67,8.36,17.09,6.65.37,9.31-10.75,9.5-15.86Z"/>
          </g>
          <g>
            <path class="cls-11" d="M333.52,640.76c18.24,6.07,26.4,17.43,23.93,33.73-3.99,26.36-25.83,37.52-61.74,38.12-32.48.44-48.44-14.57-44.83-41.01,2.28-15.96,10.45-26.09,19.95-25.38,14.44,1.13,13.49,16.97,23.93,17.63,3.61.23,7.98-.38,8.74-6.36.95-5.98-5.32-9.69-13.11-13.11-11.97-5.28-27.73-9.46-25.45-26.49,2.47-17.47,20.51-28.44,48.06-28.6,10.26.02,21.84.69,30.77,3.7,8.93,2.98,14.63,8.87,13.49,18.31-1.9,15.11-11.59,23.43-18.43,23.12-5.89-.29-9.5-4.51-12.73-8.98-3.04-4.04-5.89-7.49-10.26-7.67-3.04-.13-6.08,1.61-6.84,6.64-1.33,10.4,16.91,13.75,24.5,16.35Z"/>
            <path class="cls-11" d="M472.19,696.43c-1.9,10.36-19.38,15.49-31.34,15.58-14.82-.08-26.97-4.66-24.69-18.02,1.33-7.95,8.17-12.6,9.5-20.99.76-5.83-3.04-10.13-9.31-10.33-5.32-.2-11.59,3.6-11.78,10.53-.19,7.75,7.03,13.76,5.51,22.97-1.9,10.57-19.38,16.47-31.34,16.6-18.81.05-26.4-8.44-23.93-23.58,2.47-15.53,14.44-29.52,17.1-48.4,1.71-13.49-7.22-13.91-5.89-25.32,1.71-12.9,20.14-27.36,36.85-27.51,11.21-.02,13.11,8.73,11.97,18.09-1.33,11.97-5.13,23.77-7.41,34.22,10.07-8.93,24.31-17.38,38.94-17.13,15.39.1,26.4,8.61,24.12,26.56-1.52,11.19-6.65,16.26-7.98,24.74-1.9,12.82,11.21,12.73,9.69,21.97Z"/>
            <path class="cls-11" d="M570.59,684.53c1.14,5.14,4.37,8.23,3.42,13.55-1.71,9.5-11.97,13.92-26.78,13.99-11.21-.02-19.38-2.55-21.27-7.44-5.13,4.89-17.86,8.13-29.63,8.15-16.34-.04-25.83-6.29-23.55-18.43,2.09-12.28,11.97-20.44,35.52-26.87,10.26-3.05,18.62-5.47,19.95-14.4.57-5.01-2.28-7.79-6.84-7.81-6.46-.05-9.5,4.73-12.35,9.63-3.23,5.32-6.84,10.48-15.2,10.36-7.41-.13-11.4-5.11-10.26-13.5,2.28-16.23,22.23-28.07,49.01-27.89,31.34-.36,42.74,17.92,38.56,46.26-.95,7.04-1.14,11.63-.57,14.39ZM516.65,693.42c5.7-.14,10.07-2.88,11.02-17.55-9.5.62-16.15,5.46-17.1,11.33-.57,3.8,1.52,6.19,6.08,6.22Z"/>
            <path class="cls-11" d="M634.8,671.28c-4.18.04-9.31,1.96-10.07,6.94-1.33,8.22,7.41,9.96,5.89,18.46-1.9,10.21-14.25,15.34-31.34,15.39-17.1-.09-26.59-5.37-24.5-16.59,1.9-10.86,12.16-13.01,14.25-25.95,1.71-12.25-7.79-9.07-6.46-18.99,1.52-12.54,21.09-25.35,31.91-25.41,8.55-.1,12.54,6.88,11.02,17.65,0,.65-.76,5.63-.95,6.43,9.12-15.68,19.75-25.58,30.01-25.59,8.74-.13,13.68,13.7,11.59,29.22-1.9,14.48-7.03,21.38-13.87,21.57-6.65.11-8.74-3.23-17.48-3.12Z"/>
            <path class="cls-11" d="M750.29,685.68c-2.66,17.66-19.95,27.11-45.78,27.09-29.63-.45-45.4-10.89-41.22-38.2,4.18-27.47,26.78-51.78,57.75-51.93,19.38-.36,31.15,10.65,29.06,25.66-2.66,19.01-23.74,24.3-39.7,24.8-3.42.08-7.03-.19-10.83-.47-.76-.16-1.71.57-2.09,1.28-.38.71-.19,1.58.57,2.26,2.28,2.03,7.22,2.95,15.2,2.77,8.93-.17,18.05-5.27,26.02-5.5,8.93-.28,12.35,3.36,11.02,12.22ZM705.08,661.9c7.22.19,14.25-3.85,15.2-11.21.57-3.39-2.28-5.78-6.65-5.68-6.27.14-12.35,5.21-13.3,10.68-.57,3.52,1.33,6.1,4.75,6.22Z"/>
            <path class="cls-11" d="M882.12,679.54c1.52,4.06,3.99,7.92,2.85,14.87-1.52,10.45-14.82,17.29-32.1,17.26-18.24-.09-26.78-5.99-24.69-18.71.57-4,1.71-7.27,3.42-10.09-7.03-2.22-11.78-5.38-14.44-9.58-5.32-8.61-4.18-17.23-2.66-28.76,1.9-13.67-6.27-14.83-5.13-23.31,2.47-19.9,25.64-30.93,40.08-30.78,13.87-.03,17.29,6.83,15.77,18.7-1.14,8.86-6.46,12.73-7.6,20.71-.76,6.31,2.85,9.12,8.17,8.94,4.75-.18,10.26-2.32,11.02-8.15.95-6.88-5.32-5.25-4.18-13.51,1.71-13.55,19.76-26.9,37.61-26.83,12.92-.03,17.1,5.98,15.2,20.85-5.13,38.5-21.28,59.62-43.31,68.42Z"/>
            <path class="cls-11" d="M1014.15,663.11c-4.37,32.58-23.36,49.97-55.28,49.67-28.68-.37-45.78-16.88-41.6-45.84,3.99-28.38,25.45-49.98,55.28-50.59,29.25-.67,45.97,16.22,41.6,46.76ZM979.01,655.98c.19-5.13-1.52-15.9-8.36-15.63-7.03.29-9.5,11.46-9.5,16.37,0,5.12,1.71,15.96,8.36,15.71,6.65-.23,9.31-11.32,9.5-16.46Z"/>
            <path class="cls-11" d="M1115.02,691.12c-1.33,11.08-12.54,20.41-25.07,20.37-9.5,0-17.29-6.41-21.66-16.97-7.22,11.03-19,18.09-29.44,18.05-16.34-.08-26.97-9.86-25.07-23.04,1.71-13.02,8.74-21.79,10.45-33.91,1.52-10.55-6.84-12.83-5.89-19.66,1.9-10.31,19.95-22.52,36.28-22.89,10.83-.27,13.87,6.01,12.54,15.43-1.14,8.51-5.13,15.83-6.08,23.9-.38,5.18,2.09,10.14,6.84,9.96,4.75-.18,7.6-5.76,8.36-11.34,1.52-10.73-5.7-9.08-4.56-16.41,1.52-11.1,18.81-22.6,36.28-22.98,10.45-.24,14.63,5.89,13.3,15.66-1.9,12.71-8.55,24.3-10.07,35.44-1.71,13.23,5.51,15.72,3.8,28.38Z"/>
            <path class="cls-11" d="M1175.61,652.99c-4.18.15-9.31,2.24-10.07,8.1-1.33,10.01,7.41,12.01,5.89,24.37-1.9,15.35-14.25,26.03-31.34,25.96-17.1-.01-26.59-10.73-24.5-26.83,1.9-14.94,12.16-17.94,14.25-32.34,1.71-12.74-7.79-9.11-6.46-18.47,1.52-11.53,21.09-21.43,31.91-21.65,8.55-.18,12.54,4.6,11.02,13.68,0,.52-.76,4.85-.95,5.6,9.12-14.07,19.76-20.78,30.01-21.05,8.74-.14,13.68,9.2,11.59,23.56-1.9,13.49-7.03,22.17-13.87,22.31-6.65.2-8.74-3.51-17.48-3.22Z"/>
            <path class="cls-11" d="M1368.23,639.16c-5.51,39.98-31.15,72.91-71.99,72.09-31.91.13-46.35-15.05-43.31-40.35,2.47-19.99,15.58-26.81,18.24-45.32,1.33-8.28-9.69-8.93-8.17-17.35,1.9-11.68,26.21-19.44,56.23-19.39,36.09.69,54.52,12.27,49.01,50.32ZM1329.29,621.27c-1.14-5.95-4.56-12.23-12.35-12.12-8.17.08-13.3,10.54-11.02,23.95,1.52,8.02,5.7,14.6,12.73,14.47,7.6-.14,12.73-14.43,10.64-26.3Z"/>
            <path class="cls-11" d="M1455.42,669.27c-2.66,23.54-19.95,43.62-45.78,43.51-29.63.3-45.4-27.25-41.22-59.75,4.18-31.73,26.78-45.12,57.75-45.37,19.38.1,31.15,7.35,29.06,20.62-2.66,17.3-23.74,24.15-39.7,23.95-3.42,0-7.03-.41-10.83-.81-.76-.2-1.71.62-2.09,1.44-.38.82-.19,1.86.57,2.69,2.28,2.5,7.22,3.78,15.2,3.79,8.93-.02,18.05-5.86,26.02-5.78,8.93.12,12.35,4.03,11.02,15.72ZM1410.21,639.92c7.22.4,14.25-3.72,15.2-10.37.57-3.05-2.28-5.11-6.65-5.12-6.27,0-12.35,4.12-13.3,9.29-.57,3.32,1.33,6.01,4.75,6.2Z"/>
            <path class="cls-11" d="M1594.66,711.34c-13.68.16-25.07-9.7-22.79-29.28,1.33-11.3,7.6-17.21,8.93-26.68.95-7-2.47-11.11-8.55-11.35-6.08-.23-10.45,5.38-11.21,11.68-1.52,10.85,6.65,15.77,5.13,28.47-1.9,15.73-18.62,27.09-29.82,27.09-13.87.17-25.26-10.15-22.98-30.29,1.33-11.62,7.79-17.72,9.12-27.34.95-6.9-2.47-11.15-8.55-11.3-6.08-.13-10.26,5.15-11.21,11.92-1.33,11,6.46,15.9,4.94,28.96-1.9,16.22-18.43,28.06-29.63,28.02-12.92.12-25.07-12.09-22.98-30.81,1.9-16.02,11.78-19.6,13.68-33.94,1.71-13.03-7.03-11.22-5.89-18.65,1.71-11.01,20.14-19.06,30.39-18.95,7.98.13,11.4,4.78,10.07,13.43,0,.51-.19,1.19-.38,1.88,9.88-8.82,24.31-15.57,39.51-15.29,12.73.29,20.9,4.41,22.42,13.73,10.45-7.91,23.17-12.59,35.9-12.23,14.44.51,24.88,6.2,22.41,22.05-1.52,10.2-6.46,15.35-7.79,24.81-1.9,15.11,10.64,15.53,9.12,28.47-1.9,14.98-18.62,25.61-29.82,25.64Z"/>
            <path class="cls-11" d="M1724.97,664.09c-4.37,31.16-23.36,48.23-55.28,48.68-28.68.57-45.78-23.79-41.6-54.93,3.99-29.62,25.45-45.23,55.28-44.2,29.25,1.14,45.97,20.51,41.6,50.45ZM1689.83,652.83c.19-5.18-1.52-16.03-8.36-16.47-7.03-.49-9.5,10.21-9.5,15.24,0,5.14,1.71,16.67,8.36,17.09,6.65.37,9.31-10.75,9.5-15.86Z"/>
          </g>
        </g>
        <g>
          <g class="cls-4">
            <path class="cls-6" d="M439.92,456.34c-7.82,57.35-49.96,84.37-103.22,81.76-53.26-2.45-88.17-50.27-80.65-104.62,8.13-55.02,49.95-96.35,102.02-98.26,56.58-1.49,90.28,57.99,81.85,121.12ZM376.13,410.61c-1.8-11.87-7.52-27.17-20.16-27.83-13.24-.59-21.97,22.73-18.06,46.51,2.41,14.55,9.33,25.71,20.76,26.85,12.34,1.24,21.07-20.25,17.45-45.52Z"/>
            <path class="cls-6" d="M606.64,479.21c-5.42,39.37-25.58,67.02-70.72,66.64-8.43-.08-15.95-1.77-22.87-5.23,1.5,4.09,1.81,8.25,1.2,11.84-3.01,15.01-23.17,25.24-49.05,25.32-30.09.02-42.13-11.94-38.22-34.03,3.91-22.68,23.47-43.35,27.38-71.42,2.71-20.29-12.04-21.18-9.63-38.85,1.81-14.61,25.88-41.05,58.38-40.79,14.14.21,18.96,8.13,19.26,18.55,10.23-11.69,24.38-19.92,40.02-19.87,40.93.52,49.05,54.92,44.24,87.84ZM544.95,458.74c-1.81-10.27-7.22-18.79-15.65-18.91-9.93-.15-13.24,9.51-14.44,18.1-2.41,17.63,6.02,33.14,17.15,33.31,9.33.16,15.95-15.4,12.94-32.5Z"/>
            <path class="cls-6" d="M744.77,494.95c-4.21,30.6-31.6,48.93-72.52,49.77-46.95.4-71.92-20.21-65.3-67.63,6.62-47.48,42.43-87.05,91.48-87.6,30.7-.69,49.35,17.06,46.04,42.09-4.21,31.81-37.62,41.74-62.9,42.8-5.42.19-11.13-.23-17.15-.66-1.2-.27-2.71,1-3.31,2.23-.6,1.23-.3,2.73.9,3.9,3.61,3.49,11.44,5.02,24.07,4.57,14.14-.48,28.59-9.48,41.23-10.1,14.14-.73,19.56,5.28,17.45,20.63ZM673.15,455.3c11.44.25,22.57-6.76,24.07-19.14.9-5.71-3.61-9.67-10.53-9.45-9.93.3-19.56,8.83-21.07,18.09-.9,5.96,2.11,10.35,7.52,10.5Z"/>
            <path class="cls-6" d="M879.59,535.77c-23.47.92-42.73-7.74-39.12-32.38,2.11-14.33,12.64-23.9,14.75-38.53,1.51-10.1-3.91-16.6-13.84-15.93-10.83.71-18.06,9.34-19.56,20.02-2.11,16.33,11.44,21.01,9.03,37.58-3.01,20.48-31,32.84-49.96,33.51-21.37.63-42.13-9.5-38.82-31.21,3.01-19.65,19.56-25.52,22.57-47.43,2.71-21.1-11.74-22.01-10.23-31.25,3.01-20.78,33.1-41.55,50.86-42.1,13.54-.51,19.56,9.72,17.45,27.04-.3,1.01-.3,2.33-.6,3.33,15.95-17.72,40.63-34.43,66.21-35.42,24.08-.99,41.83,9.31,37.92,36.99-1.81,15.07-10.53,27.11-12.64,41.18-3.01,23.03,18.06,21.05,15.65,38.85-3.01,21.32-31,34.96-49.65,35.76Z"/>
            <path class="cls-6" d="M1142.61,399.51c28.89,5.63,41.83,19.42,37.92,47.43-6.32,46.94-40.93,77.94-97.8,80.08-51.46,2.21-76.74-19.44-71.02-61.56,3.61-25.91,16.55-43.97,31.6-45.04,22.87-1.7,21.37,23.32,37.92,22.09,5.72-.43,12.64-2.5,13.84-12.05,1.51-9.55-8.43-13.75-20.76-17.28-18.96-5.34-43.94-8.5-40.33-35,3.91-27.54,32.5-43.28,76.14-42.96,16.25,0,34.61.8,48.75,3.91,14.14,3.16,23.17,8.92,21.37,19.73-3.01,17.41-18.36,30.42-29.19,31-9.33.52-15.05-4.69-20.16-10.17-4.81-4.95-9.33-9.1-16.25-8.82-4.82.2-9.63,2.85-10.83,9.88-2.11,14.71,26.78,16.44,38.82,18.75Z"/>
            <path class="cls-6" d="M1299.1,454.75c-4.51,34.31-35.81,65.13-73.13,66.23-31.6,1.19-47.25-15.51-43.33-44.71,2.71-21.07,14.14-34.86,16.85-52.21.6-4.11,2.11-9.9-.3-13.13-.6-.81-1.81-1.02-3.01-.95-2.11.13-5.12.87-7.52,1.02-6.62.47-13.24-4.74-10.83-21.22,2.71-16.58,10.83-19.71,17.45-20.02,2.41-.09,5.72.55,8.12.46,3.31-.12,3.91-1.93,4.51-4.7.9-4.79-1.2-11.84,3.61-16.65,4.51-4.12,18.36-6.97,32.5-7.07,3.31-.03,6.62.17,9.63.36,9.63.83,14.44,3.54,13.24,9.68-.9,4.31-3.61,10.52-2.41,13.39.9,2.62,3.61,3.28,6.92,3.18,5.72-.18,13.54-2.32,17.75-2.42,8.73-.12,16.55,3.55,14.14,18.78-2.71,15.75-12.94,22.62-21.37,22.91-6.92.31-8.73-3.46-13.54-3.23-6.62.33-9.93,3.97-11.44,13.43-1.81,12.7,3.01,17.36,18.96,16.52,18.06-.83,25.28,5.22,23.17,20.36Z"/>
            <path class="cls-6" d="M1449.26,447.41c1.81,10.09,6.92,16.57,5.42,29.03-2.71,22.74-18.96,37.85-42.43,37.92-17.75.14-30.7-7.88-33.7-20.82-8.12,13.12-28.29,23.83-46.95,24.22-25.88.61-40.93-18.77-37.32-45.46,3.31-26.5,18.96-40.72,56.27-52.58,16.25-5.3,29.49-9.68,31.6-21.75.9-6.63-3.61-9.81-10.83-9.69-10.23.2-15.05,6.19-19.56,13.05-5.12,7.39-10.83,15.52-24.07,15.99-11.74.45-18.06-7.12-16.25-18.46,3.61-21.84,35.21-34.05,77.64-34.51,49.65.15,67.71,13.85,61.09,57.73-1.5,11.3-1.81,20.01-.9,25.32ZM1363.8,467.03c9.03,0,15.95-8.55,17.45-34.61-15.05,1.52-25.58,10.16-27.08,21.94-.9,7.65,2.41,12.85,9.63,12.67Z"/>
            <path class="cls-6" d="M1506.75,495.06c-34.01-.31-53.27-35.95-47.25-76.95,5.42-35.55,28.59-53.63,64.1-53.27,16.85.36,30.39,5.4,38.22,16.99,9.33-9.69,25.88-16.42,41.83-15.83,12.64.5,20.46,6.44,18.66,18.06-3.31,20.44-13.54,40.59-15.05,63.77-1.2,21.78,1.5,38.22-.6,55.53-5.42,43.71-38.52,75.49-88.17,75.63-39.42.17-59.58-20.82-56.27-51.21,1.81-16.61,9.63-24.66,23.47-24.53,15.05.18,26.78,9.44,38.52,9.72,16.25.32,29.19-17.73,28.29-36.33,0-1.66-1.2-2.71-2.41-1.1-9.63,12.24-26.48,19.89-43.33,19.53ZM1561.22,420.32c-.3-14.32-6.92-20.84-16.55-21.26-8.43-.29-15.95,8.63-15.65,22.48.3,15.94,6.02,25.43,17.15,25.84,8.73.41,15.35-11.25,15.05-27.07Z"/>
            <path class="cls-6" d="M1758.63,476.9c-4.21,30.86-31.6,50.4-72.52,47.89-46.95-2.59-71.92-40.27-65.3-87.12,6.62-45.21,42.43-66.68,91.48-63.93,30.7,2.04,49.35,19.13,46.04,41.43-4.21,28.24-37.62,32.02-62.9,29.08-5.42-.66-11.13-1.92-17.15-3.19-1.2-.43-2.71.6-3.31,1.73-.6,1.13-.3,2.67.9,4.01,3.61,4.02,11.44,6.7,24.07,8.26,14.14,1.73,28.59-4.72,41.23-2.82,14.14,2.12,19.56,9.07,17.45,24.67ZM1687,424.92c11.44,1.88,22.57-2.92,24.07-13.49.9-4.83-3.61-8.78-10.53-9.5-9.93-1.02-19.56,4.77-21.07,12.63-.9,5.06,2.11,9.46,7.52,10.36Z"/>
          </g>
          <g>
            <path class="cls-11" d="M432.92,447.34c-7.82,57.35-49.96,84.37-103.22,81.76-53.26-2.45-88.17-50.27-80.65-104.62,8.13-55.02,49.95-96.35,102.02-98.26,56.58-1.49,90.28,57.99,81.85,121.12ZM369.13,401.61c-1.8-11.87-7.52-27.17-20.16-27.83-13.24-.59-21.97,22.73-18.06,46.51,2.41,14.55,9.33,25.71,20.76,26.85,12.34,1.24,21.07-20.25,17.45-45.52Z"/>
            <path class="cls-11" d="M599.64,470.21c-5.42,39.37-25.58,67.02-70.72,66.64-8.43-.08-15.95-1.77-22.87-5.23,1.5,4.09,1.81,8.25,1.2,11.84-3.01,15.01-23.17,25.24-49.05,25.32-30.09.02-42.13-11.94-38.22-34.03,3.91-22.68,23.47-43.35,27.38-71.42,2.71-20.29-12.04-21.18-9.63-38.85,1.81-14.61,25.88-41.05,58.38-40.79,14.14.21,18.96,8.13,19.26,18.55,10.23-11.69,24.38-19.92,40.02-19.87,40.93.52,49.05,54.92,44.24,87.84ZM537.95,449.74c-1.81-10.27-7.22-18.79-15.65-18.91-9.93-.15-13.24,9.51-14.44,18.1-2.41,17.63,6.02,33.14,17.15,33.31,9.33.16,15.95-15.4,12.94-32.5Z"/>
            <path class="cls-11" d="M737.77,485.95c-4.21,30.6-31.6,48.93-72.52,49.77-46.95.4-71.92-20.21-65.3-67.63,6.62-47.48,42.43-87.05,91.48-87.6,30.7-.69,49.35,17.06,46.04,42.09-4.21,31.81-37.62,41.74-62.9,42.8-5.42.19-11.13-.23-17.15-.66-1.2-.27-2.71,1-3.31,2.23-.6,1.23-.3,2.73.9,3.9,3.61,3.49,11.44,5.02,24.07,4.57,14.14-.48,28.59-9.48,41.23-10.1,14.14-.73,19.56,5.28,17.45,20.63ZM666.15,446.3c11.44.25,22.57-6.76,24.07-19.14.9-5.71-3.61-9.67-10.53-9.45-9.93.3-19.56,8.83-21.07,18.09-.9,5.96,2.11,10.35,7.52,10.5Z"/>
            <path class="cls-11" d="M872.59,526.77c-23.47.92-42.73-7.74-39.12-32.38,2.11-14.33,12.64-23.9,14.75-38.53,1.51-10.1-3.91-16.6-13.84-15.93-10.83.71-18.06,9.34-19.56,20.02-2.11,16.33,11.44,21.01,9.03,37.58-3.01,20.48-31,32.84-49.96,33.51-21.37.63-42.13-9.5-38.82-31.21,3.01-19.65,19.56-25.52,22.57-47.43,2.71-21.1-11.74-22.01-10.23-31.25,3.01-20.78,33.1-41.55,50.86-42.1,13.54-.51,19.56,9.72,17.45,27.04-.3,1.01-.3,2.33-.6,3.33,15.95-17.72,40.63-34.43,66.21-35.42,24.08-.99,41.83,9.31,37.92,36.99-1.81,15.07-10.53,27.11-12.64,41.18-3.01,23.03,18.06,21.05,15.65,38.85-3.01,21.32-31,34.96-49.65,35.76Z"/>
            <path class="cls-11" d="M1135.61,390.51c28.89,5.63,41.83,19.42,37.92,47.43-6.32,46.94-40.93,77.94-97.8,80.08-51.46,2.21-76.74-19.44-71.02-61.56,3.61-25.91,16.55-43.97,31.6-45.04,22.87-1.7,21.37,23.32,37.92,22.09,5.72-.43,12.64-2.5,13.84-12.05,1.51-9.55-8.43-13.75-20.76-17.28-18.96-5.34-43.94-8.5-40.33-35,3.91-27.54,32.5-43.28,76.14-42.96,16.25,0,34.61.8,48.75,3.91,14.14,3.16,23.17,8.92,21.37,19.73-3.01,17.41-18.36,30.42-29.19,31-9.33.52-15.05-4.69-20.16-10.17-4.81-4.95-9.33-9.1-16.25-8.82-4.82.2-9.63,2.85-10.83,9.88-2.11,14.71,26.78,16.44,38.82,18.75Z"/>
            <path class="cls-11" d="M1292.1,445.75c-4.51,34.31-35.81,65.13-73.13,66.23-31.6,1.19-47.25-15.51-43.33-44.71,2.71-21.07,14.14-34.86,16.85-52.21.6-4.11,2.11-9.9-.3-13.13-.6-.81-1.81-1.02-3.01-.95-2.11.13-5.12.87-7.52,1.02-6.62.47-13.24-4.74-10.83-21.22,2.71-16.58,10.83-19.71,17.45-20.02,2.41-.09,5.72.55,8.12.46,3.31-.12,3.91-1.93,4.51-4.7.9-4.79-1.2-11.84,3.61-16.65,4.51-4.12,18.36-6.97,32.5-7.07,3.31-.03,6.62.17,9.63.36,9.63.83,14.44,3.54,13.24,9.68-.9,4.31-3.61,10.52-2.41,13.39.9,2.62,3.61,3.28,6.92,3.18,5.72-.18,13.54-2.32,17.75-2.42,8.73-.12,16.55,3.55,14.14,18.78-2.71,15.75-12.94,22.62-21.37,22.91-6.92.31-8.73-3.46-13.54-3.23-6.62.33-9.93,3.97-11.44,13.43-1.81,12.7,3.01,17.36,18.96,16.52,18.06-.83,25.28,5.22,23.17,20.36Z"/>
            <path class="cls-11" d="M1442.26,438.41c1.81,10.09,6.92,16.57,5.42,29.03-2.71,22.74-18.96,37.85-42.43,37.92-17.75.14-30.7-7.88-33.7-20.82-8.12,13.12-28.29,23.83-46.95,24.22-25.88.61-40.93-18.77-37.32-45.46,3.31-26.5,18.96-40.72,56.27-52.58,16.25-5.3,29.49-9.68,31.6-21.75.9-6.63-3.61-9.81-10.83-9.69-10.23.2-15.05,6.19-19.56,13.05-5.12,7.39-10.83,15.52-24.07,15.99-11.74.45-18.06-7.12-16.25-18.46,3.61-21.84,35.21-34.05,77.64-34.51,49.65.15,67.71,13.85,61.09,57.73-1.5,11.3-1.81,20.01-.9,25.32ZM1356.8,458.03c9.03,0,15.95-8.55,17.45-34.61-15.05,1.52-25.58,10.16-27.08,21.94-.9,7.65,2.41,12.85,9.63,12.67Z"/>
            <path class="cls-11" d="M1499.75,486.06c-34.01-.31-53.27-35.95-47.25-76.95,5.42-35.55,28.59-53.63,64.1-53.27,16.85.36,30.39,5.4,38.22,16.99,9.33-9.69,25.88-16.42,41.83-15.83,12.64.5,20.46,6.44,18.66,18.06-3.31,20.44-13.54,40.59-15.05,63.77-1.2,21.78,1.5,38.22-.6,55.53-5.42,43.71-38.52,75.49-88.17,75.63-39.42.17-59.58-20.82-56.27-51.21,1.81-16.61,9.63-24.66,23.47-24.53,15.05.18,26.78,9.44,38.52,9.72,16.25.32,29.19-17.73,28.29-36.33,0-1.66-1.2-2.71-2.41-1.1-9.63,12.24-26.48,19.89-43.33,19.53ZM1554.22,411.32c-.3-14.32-6.92-20.84-16.55-21.26-8.43-.29-15.95,8.63-15.65,22.48.3,15.94,6.02,25.43,17.15,25.84,8.73.41,15.35-11.25,15.05-27.07Z"/>
            <path class="cls-11" d="M1751.63,467.9c-4.21,30.86-31.6,50.4-72.52,47.89-46.95-2.59-71.92-40.27-65.3-87.12,6.62-45.21,42.43-66.68,91.48-63.93,30.7,2.04,49.35,19.13,46.04,41.43-4.21,28.24-37.62,32.02-62.9,29.08-5.42-.66-11.13-1.92-17.15-3.19-1.2-.43-2.71.6-3.31,1.73-.6,1.13-.3,2.67.9,4.01,3.61,4.02,11.44,6.7,24.07,8.26,14.14,1.73,28.59-4.72,41.23-2.82,14.14,2.12,19.56,9.07,17.45,24.67ZM1680,415.92c11.44,1.88,22.57-2.92,24.07-13.49.9-4.83-3.61-8.78-10.53-9.5-9.93-1.02-19.56,4.77-21.07,12.63-.9,5.06,2.11,9.46,7.52,10.36Z"/>
          </g>
        </g>
        <g>
          <path class="cls-11" d="M648.9,917.3v37.7h-9.18v-15.52h-14.28v15.52h-9.18v-37.7h9.18v14.77h14.28v-14.77h9.18Z"/>
          <path class="cls-11" d="M663.59,952.9c-2.95-1.65-5.3-3.95-7.04-6.9-1.74-2.95-2.6-6.27-2.6-9.96s.87-7,2.6-9.93c1.74-2.94,4.08-5.23,7.04-6.87,2.95-1.65,6.2-2.47,9.75-2.47s6.79.82,9.75,2.47c2.95,1.65,5.28,3.94,6.98,6.87,1.7,2.94,2.55,6.25,2.55,9.93s-.86,7.01-2.58,9.96c-1.72,2.95-4.05,5.25-6.98,6.9-2.94,1.65-6.18,2.47-9.72,2.47s-6.79-.82-9.75-2.47ZM680.56,943.99c1.81-2,2.71-4.65,2.71-7.95s-.9-5.99-2.71-7.97c-1.81-1.99-4.22-2.98-7.22-2.98s-5.47.98-7.28,2.95c-1.81,1.97-2.71,4.64-2.71,8s.9,5.99,2.71,7.97c1.81,1.99,4.23,2.98,7.28,2.98s5.41-1,7.22-3.01Z"/>
          <path class="cls-11" d="M703.95,954.03c-2.18-.89-3.93-2.22-5.24-3.97-1.31-1.75-2-3.87-2.07-6.34h9.77c.14,1.4.63,2.46,1.45,3.2.82.73,1.9,1.1,3.22,1.1s2.43-.31,3.22-.94c.79-.63,1.18-1.49,1.18-2.6,0-.93-.31-1.7-.94-2.31-.63-.61-1.4-1.11-2.31-1.5-.91-.39-2.21-.84-3.89-1.34-2.44-.75-4.42-1.5-5.96-2.26-1.54-.75-2.86-1.86-3.97-3.33-1.11-1.47-1.67-3.38-1.67-5.75,0-3.51,1.27-6.26,3.81-8.24,2.54-1.99,5.85-2.98,9.93-2.98s7.5.99,10.04,2.98,3.9,4.75,4.08,8.3h-9.93c-.07-1.22-.52-2.17-1.34-2.87-.82-.7-1.88-1.05-3.17-1.05-1.11,0-2.01.3-2.69.89-.68.59-1.02,1.44-1.02,2.55,0,1.22.57,2.17,1.72,2.85,1.15.68,2.94,1.41,5.37,2.2,2.43.82,4.41,1.61,5.93,2.36,1.52.75,2.84,1.84,3.95,3.28,1.11,1.43,1.67,3.28,1.67,5.53s-.55,4.1-1.64,5.85c-1.09,1.75-2.68,3.15-4.75,4.19-2.08,1.04-4.53,1.56-7.36,1.56s-5.23-.45-7.41-1.34Z"/>
          <path class="cls-11" d="M757.86,917.3v7.36h-9.99v30.34h-9.18v-30.34h-9.99v-7.36h29.16Z"/>
          <path class="cls-11" d="M771.66,924.66v7.63h12.3v7.09h-12.3v8.27h13.91v7.36h-23.09v-37.7h23.09v7.36h-13.91Z"/>
          <path class="cls-11" d="M816.07,919.66c2.97,1.58,5.27,3.79,6.9,6.63,1.63,2.85,2.44,6.13,2.44,9.85s-.81,6.96-2.44,9.83c-1.63,2.86-3.94,5.08-6.93,6.66-2.99,1.58-6.45,2.36-10.39,2.36h-14.12v-37.7h14.12c3.97,0,7.45.79,10.42,2.36ZM813.17,944.2c1.93-1.9,2.9-4.58,2.9-8.06s-.97-6.18-2.9-8.11-4.64-2.9-8.11-2.9h-4.35v21.91h4.35c3.47,0,6.18-.95,8.11-2.85Z"/>
          <path class="cls-11" d="M870.04,938.91c1.32,1.7,1.99,3.64,1.99,5.83,0,3.15-1.1,5.65-3.3,7.49-2.2,1.84-5.27,2.77-9.21,2.77h-17.56v-37.7h16.97c3.83,0,6.83.88,8.99,2.63,2.17,1.75,3.25,4.13,3.25,7.14,0,2.22-.58,4.06-1.75,5.53-1.16,1.47-2.71,2.49-4.65,3.06,2.18.47,3.94,1.55,5.26,3.25ZM851.14,932.55h6.01c1.5,0,2.66-.33,3.46-.99.81-.66,1.21-1.64,1.21-2.93s-.4-2.27-1.21-2.95c-.81-.68-1.96-1.02-3.46-1.02h-6.01v7.89ZM861.48,946.54c.84-.7,1.26-1.71,1.26-3.03s-.44-2.36-1.32-3.11c-.88-.75-2.09-1.13-3.62-1.13h-6.66v8.32h6.77c1.54,0,2.73-.35,3.57-1.05Z"/>
          <path class="cls-11" d="M909.67,917.3l-13.05,25.24v12.46h-9.18v-12.46l-13.05-25.24h10.42l7.3,15.79,7.25-15.79h10.31Z"/>
          <path class="cls-11" d="M913.73,932.15c-1.02-.95-1.53-2.12-1.53-3.52s.51-2.63,1.53-3.6c1.02-.97,2.34-1.45,3.95-1.45s2.87.48,3.89,1.45c1.02.97,1.53,2.17,1.53,3.6s-.51,2.57-1.53,3.52c-1.02.95-2.32,1.42-3.89,1.42s-2.93-.47-3.95-1.42ZM913.73,954c-1.02-.95-1.53-2.12-1.53-3.52s.51-2.63,1.53-3.6c1.02-.97,2.34-1.45,3.95-1.45s2.87.48,3.89,1.45c1.02.97,1.53,2.17,1.53,3.6s-.51,2.57-1.53,3.52c-1.02.95-2.32,1.42-3.89,1.42s-2.93-.47-3.95-1.42Z"/>
          <path class="cls-11" d="M965.79,938.99c1.4,1.75,2.09,3.74,2.09,5.96,0,1.9-.49,3.61-1.48,5.13-.98,1.52-2.41,2.72-4.27,3.6-1.86.88-4.03,1.32-6.5,1.32h-14.93v-37.32h14.23c2.54,0,4.73.43,6.55,1.29,1.83.86,3.2,2.01,4.13,3.46.93,1.45,1.4,3.07,1.4,4.86,0,2.15-.57,3.94-1.72,5.37-1.15,1.43-2.69,2.49-4.62,3.17,2,.36,3.71,1.41,5.1,3.17ZM946.83,933.36h7.57c2,0,3.57-.46,4.7-1.37,1.13-.91,1.69-2.23,1.69-3.95s-.56-3-1.69-3.95c-1.13-.95-2.69-1.42-4.7-1.42h-7.57v10.69ZM959.99,948.5c1.18-1,1.77-2.4,1.77-4.19s-.63-3.28-1.88-4.35c-1.25-1.07-2.92-1.61-4.99-1.61h-8.06v11.65h8.27c2.08,0,3.71-.5,4.89-1.5Z"/>
          <path class="cls-11" d="M984.24,926.19c1.49-.84,3.25-1.26,5.29-1.26v6.34h-1.56c-2.4,0-4.22.61-5.45,1.83-1.24,1.22-1.85,3.33-1.85,6.34v15.57h-6.12v-29.59h6.12v4.3c.89-1.5,2.09-2.68,3.57-3.52Z"/>
          <path class="cls-11" d="M994.98,932.17c1.23-2.29,2.92-4.07,5.05-5.34,2.13-1.27,4.48-1.91,7.06-1.91,2.33,0,4.36.46,6.1,1.37,1.74.91,3.12,2.05,4.16,3.41v-4.3h6.18v29.59h-6.18v-4.4c-1.04,1.4-2.45,2.56-4.24,3.49-1.79.93-3.83,1.4-6.12,1.4-2.54,0-4.87-.65-6.98-1.96-2.11-1.31-3.79-3.13-5.02-5.48-1.24-2.34-1.85-5-1.85-7.98s.62-5.6,1.85-7.89ZM1016.08,934.86c-.84-1.5-1.94-2.65-3.3-3.44-1.36-.79-2.83-1.18-4.4-1.18s-3.04.39-4.4,1.15c-1.36.77-2.46,1.9-3.3,3.38-.84,1.49-1.26,3.25-1.26,5.29s.42,3.83,1.26,5.37c.84,1.54,1.95,2.71,3.33,3.52,1.38.81,2.84,1.21,4.38,1.21s3.04-.39,4.4-1.18c1.36-.79,2.46-1.94,3.3-3.46.84-1.52,1.26-3.3,1.26-5.34s-.42-3.81-1.26-5.32Z"/>
          <path class="cls-11" d="M1031.39,932.17c1.23-2.29,2.92-4.07,5.05-5.34,2.13-1.27,4.5-1.91,7.12-1.91,1.93,0,3.84.42,5.72,1.26,1.88.84,3.37,1.96,4.48,3.36v-14.28h6.18v39.74h-6.18v-4.46c-1,1.43-2.39,2.61-4.16,3.54-1.77.93-3.8,1.4-6.1,1.4-2.58,0-4.93-.65-7.06-1.96-2.13-1.31-3.81-3.13-5.05-5.48-1.24-2.34-1.85-5-1.85-7.98s.62-5.6,1.85-7.89ZM1052.49,934.86c-.84-1.5-1.94-2.65-3.3-3.44-1.36-.79-2.83-1.18-4.4-1.18s-3.04.39-4.4,1.15c-1.36.77-2.46,1.9-3.3,3.38-.84,1.49-1.26,3.25-1.26,5.29s.42,3.83,1.26,5.37c.84,1.54,1.95,2.71,3.33,3.52,1.38.81,2.84,1.21,4.38,1.21s3.04-.39,4.4-1.18c1.36-.79,2.46-1.94,3.3-3.46.84-1.52,1.26-3.3,1.26-5.34s-.42-3.81-1.26-5.32Z"/>
          <path class="cls-11" d="M1130.54,917.68l-11.06,37.32h-6.93l-7.84-28.25-8.32,28.25-6.87.05-10.58-37.38h6.5l7.73,30.4,8.38-30.4h6.87l7.79,30.23,7.79-30.23h6.55Z"/>
          <path class="cls-11" d="M1145.29,926.19c1.49-.84,3.25-1.26,5.29-1.26v6.34h-1.56c-2.4,0-4.22.61-5.45,1.83-1.24,1.22-1.85,3.33-1.85,6.34v15.57h-6.12v-29.59h6.12v4.3c.89-1.5,2.09-2.68,3.57-3.52Z"/>
          <path class="cls-11" d="M1156.53,920.36c-.75-.75-1.13-1.68-1.13-2.79s.38-2.04,1.13-2.79,1.68-1.13,2.79-1.13,1.99.38,2.74,1.13c.75.75,1.13,1.68,1.13,2.79s-.38,2.04-1.13,2.79-1.66,1.13-2.74,1.13-2.04-.38-2.79-1.13ZM1162.33,925.41v29.59h-6.12v-29.59h6.12Z"/>
          <path class="cls-11" d="M1188.41,926.29c1.77.91,3.16,2.05,4.16,3.41v-4.3h6.18v30.07c0,2.72-.57,5.15-1.72,7.28-1.15,2.13-2.8,3.8-4.97,5.02-2.17,1.22-4.75,1.83-7.76,1.83-4.01,0-7.34-.94-9.99-2.82-2.65-1.88-4.15-4.43-4.51-7.65h6.07c.46,1.54,1.46,2.78,2.98,3.73,1.52.95,3.34,1.42,5.45,1.42,2.47,0,4.47-.75,5.99-2.26,1.52-1.5,2.28-3.69,2.28-6.55v-4.94c-1.04,1.4-2.44,2.57-4.22,3.52-1.77.95-3.79,1.42-6.04,1.42-2.58,0-4.93-.65-7.06-1.96-2.13-1.31-3.81-3.13-5.05-5.48-1.24-2.34-1.85-5-1.85-7.98s.62-5.6,1.85-7.89c1.23-2.29,2.92-4.07,5.05-5.34,2.13-1.27,4.48-1.91,7.06-1.91,2.29,0,4.32.46,6.1,1.37ZM1191.31,934.86c-.84-1.5-1.94-2.65-3.3-3.44-1.36-.79-2.83-1.18-4.4-1.18s-3.04.39-4.4,1.15c-1.36.77-2.46,1.9-3.3,3.38-.84,1.49-1.26,3.25-1.26,5.29s.42,3.83,1.26,5.37c.84,1.54,1.95,2.71,3.33,3.52,1.38.81,2.84,1.21,4.38,1.21s3.04-.39,4.4-1.18c1.36-.79,2.46-1.94,3.3-3.46.84-1.52,1.26-3.3,1.26-5.34s-.42-3.81-1.26-5.32Z"/>
          <path class="cls-11" d="M1212.92,915.26v39.74h-6.12v-39.74h6.12Z"/>
          <path class="cls-11" d="M1247.88,942.49h-22.61c.18,2.36,1.06,4.26,2.63,5.69,1.58,1.43,3.51,2.15,5.8,2.15,3.29,0,5.62-1.38,6.98-4.14h6.61c-.9,2.72-2.52,4.95-4.86,6.69-2.35,1.74-5.25,2.6-8.73,2.6-2.83,0-5.36-.64-7.6-1.91-2.24-1.27-3.99-3.06-5.26-5.37-1.27-2.31-1.91-4.98-1.91-8.03s.62-5.72,1.85-8.03c1.23-2.31,2.97-4.09,5.21-5.34,2.24-1.25,4.81-1.88,7.71-1.88s5.28.61,7.46,1.83c2.18,1.22,3.88,2.93,5.1,5.13,1.22,2.2,1.83,4.74,1.83,7.6,0,1.11-.07,2.11-.21,3.01ZM1241.7,937.54c-.04-2.26-.84-4.06-2.42-5.42-1.58-1.36-3.53-2.04-5.85-2.04-2.11,0-3.92.67-5.42,2.01-1.5,1.34-2.4,3.16-2.69,5.45h16.38Z"/>
          <path class="cls-11" d="M1280.74,925.41l-18.15,43.5h-6.34l6.01-14.39-11.65-29.11h6.82l8.32,22.55,8.65-22.55h6.34Z"/>
        </g>
      </g>
    </g>
  </g>
</svg>